<svg width="16" height="16" viewBox="0 0 16 16" fill="none" xmlns="http://www.w3.org/2000/svg">
<path d="M5.67448 0.662583C5.57228 0.833358 5.47958 1.00965 5.39681 1.19064C5.34082 1.33354 5.2419 1.45556 5.11366 1.53989C4.98543 1.62421 4.8342 1.66669 4.68081 1.66147C4.47808 1.66912 4.27603 1.68938 4.07582 1.72214C3.98706 1.73208 3.90423 1.77163 3.8407 1.83441C3.77717 1.89719 3.73664 1.97954 3.72564 2.06818C3.69976 2.20949 3.68899 2.35424 3.67415 2.49776C3.66223 2.61417 3.65693 2.73137 3.64403 2.84768C3.63706 2.93589 3.60866 3.02106 3.56128 3.09579C3.5139 3.17051 3.44899 3.23254 3.37219 3.27647C3.26152 3.342 3.14627 3.40012 3.03313 3.46141C2.91646 3.52465 2.79679 3.58294 2.684 3.65244C2.59192 3.69898 2.51939 3.77676 2.47941 3.87188C2.43942 3.96699 2.43459 4.07323 2.46577 4.17158C2.52079 4.37472 2.58138 4.57679 2.65212 4.77489C2.70458 4.90009 2.71832 5.03815 2.69155 5.17124C2.66479 5.30433 2.59876 5.42634 2.50198 5.52154C2.39043 5.64147 2.28251 5.76547 2.18041 5.89362C1.93736 6.19868 1.93992 6.37055 2.18792 6.67357C2.26449 6.76719 2.3491 6.85427 2.42691 6.94692C2.48953 7.02163 2.55056 7.09794 2.60681 7.1776C2.66811 7.26341 2.70489 7.36429 2.71318 7.46941C2.72147 7.57454 2.70098 7.67993 2.65389 7.77429C2.57265 7.98519 2.507 8.20177 2.45747 8.42228C2.43634 8.49625 2.43793 8.57486 2.46202 8.64792C2.48612 8.72098 2.53161 8.78511 2.5926 8.83199C2.67263 8.89395 2.75798 8.94872 2.84766 8.99565C2.9918 9.07363 3.14044 9.14332 3.28661 9.21777C3.39167 9.26709 3.48114 9.34438 3.5452 9.44117C3.60925 9.53796 3.64544 9.65051 3.64977 9.7665C3.66611 9.97661 3.67689 10.1877 3.7063 10.3961C3.74922 10.7005 3.87216 10.8188 4.17659 10.857C4.35844 10.8798 4.54206 10.8923 4.72532 10.8989C4.85719 10.8974 4.98661 10.9346 5.09744 11.0061C5.20827 11.0776 5.29562 11.1801 5.34859 11.3009C5.43452 11.476 5.52063 11.6518 5.61902 11.8201C5.78117 12.0977 5.93644 12.1614 6.24608 12.0774C6.43041 12.0275 6.61155 11.9645 6.79128 11.8994C6.90806 11.8523 7.03603 11.8402 7.15956 11.8646C7.28309 11.889 7.39685 11.9489 7.48696 12.0368C7.63066 12.1629 7.77533 12.2884 7.92564 12.4065C8.02212 12.4949 8.14821 12.5438 8.27902 12.5437C8.40983 12.5436 8.53586 12.4945 8.6322 12.406C8.7947 12.2782 8.94935 12.1403 9.10779 12.0072C9.18824 11.9349 9.28679 11.8856 9.39297 11.8648C9.49916 11.844 9.609 11.8523 9.71084 11.8889C9.86681 11.9392 10.0212 11.9949 10.1772 12.0449C10.6258 12.1892 10.7955 12.1171 11.0067 11.6966C11.0856 11.5397 11.1632 11.3819 11.2473 11.2278C11.2913 11.1421 11.3564 11.0688 11.4363 11.0149C11.5162 10.9611 11.6085 10.9283 11.7045 10.9197C11.8402 10.904 11.9768 10.8974 12.1127 10.8831C12.2406 10.8697 12.3688 10.8573 12.4954 10.8339C12.5818 10.8222 12.662 10.7823 12.7235 10.7205C12.785 10.6586 12.8244 10.5782 12.8356 10.4917C12.8707 10.3157 12.8898 10.1368 12.8928 9.95735C12.8889 9.54747 13.07 9.27792 13.4492 9.12645C13.6003 9.06284 13.746 8.9868 13.8845 8.89912C13.9721 8.85338 14.0411 8.77862 14.0796 8.68763C14.1181 8.59665 14.1238 8.4951 14.0957 8.40038C14.0522 8.2271 13.9875 8.05903 13.9287 7.88981C13.8155 7.56435 13.8216 7.26469 14.0864 7.00362C14.2017 6.88684 14.3086 6.76212 14.4064 6.63038C14.6139 6.35809 14.6132 6.19612 14.4032 5.92471C14.2934 5.78287 14.1755 5.64677 14.0546 5.51412C13.9594 5.42007 13.8945 5.29959 13.8685 5.16829C13.8425 5.03698 13.8565 4.90089 13.9087 4.77763C13.9685 4.6168 14.0235 4.45367 14.0698 4.28852C14.1701 3.9295 14.1051 3.77706 13.776 3.59663C13.6186 3.51034 13.4562 3.43306 13.2952 3.35357C13.182 3.30302 13.0854 3.22145 13.0166 3.11829C12.9478 3.01513 12.9097 2.89461 12.9066 2.77067C12.8931 2.57213 12.8832 2.37253 12.8554 2.17575C12.8102 1.85577 12.6921 1.74043 12.3737 1.69839C12.196 1.67489 12.0162 1.66226 11.8369 1.65529C11.6992 1.65773 11.5638 1.61866 11.4486 1.54315C11.3333 1.46763 11.2434 1.35918 11.1906 1.23189C11.12 1.07962 11.0469 0.927981 10.9649 0.78146C10.7802 0.452207 10.6204 0.389059 10.2583 0.497868C10.0752 0.552802 9.89498 0.617098 9.71287 0.675301C9.61683 0.71054 9.51312 0.719476 9.41247 0.701184C9.31182 0.682893 9.21788 0.638038 9.14038 0.571261C9.011 0.464483 8.8832 0.355763 8.7554 0.247042C8.3668 -0.0834472 8.19528 -0.0824757 7.81163 0.250752C7.68489 0.360797 7.55735 0.469959 7.42761 0.576295C7.35803 0.63413 7.27527 0.673913 7.18664 0.692122C7.09801 0.710332 7.00626 0.706404 6.91952 0.680688C6.7949 0.64907 6.6739 0.603497 6.55043 0.56711C6.39022 0.519859 6.22913 0.475611 6.06847 0.430039C5.98788 0.429398 5.90864 0.450703 5.83923 0.491669C5.76982 0.532635 5.71287 0.591717 5.67448 0.662583V0.662583ZM8.27927 1.00164C9.31911 1.00103 10.3358 1.30879 11.2007 1.88601C12.0656 2.46324 12.7399 3.28398 13.1383 4.24446C13.5367 5.20493 13.6414 6.26198 13.439 7.28194C13.2367 8.30189 12.7364 9.23892 12.0014 9.97452C11.2665 10.7101 10.3299 11.2113 9.31016 11.4146C8.29039 11.6178 7.23324 11.5142 6.27241 11.1166C5.31157 10.719 4.49021 10.0455 3.91221 9.1811C3.3342 8.31671 3.02551 7.30033 3.02518 6.2605C3.02604 4.86685 3.57973 3.53047 4.56473 2.54456C5.54974 1.55866 6.88563 1.00377 8.27927 1.00164V1.00164ZM8.30365 12.9748C8.39312 13.2022 8.48417 13.4291 8.57046 13.6577C8.84178 14.3771 9.11197 15.0969 9.38105 15.8171C9.41355 15.9038 9.44711 15.991 9.55495 15.9994C9.65758 16.0076 9.70218 15.9276 9.74864 15.8538C10.1084 15.282 10.4698 14.7115 10.827 14.1382C10.8717 14.0666 10.9135 14.041 10.9962 14.0714C11.1061 14.1113 11.2202 14.1396 11.3326 14.1725C11.8872 14.3346 12.4409 14.4992 12.9973 14.6548C13.0295 14.6619 13.063 14.6618 13.0952 14.6545C13.1275 14.6472 13.1577 14.6329 13.1838 14.6126C13.2191 14.5773 13.2147 14.4933 13.2134 14.4311C13.2059 14.3889 13.1916 14.3481 13.1711 14.3104C12.969 13.7774 12.7669 13.2445 12.5648 12.7118C12.3612 12.1754 12.1585 11.6385 11.9518 11.1033C11.9368 11.0646 11.8905 11.0116 11.8582 11.0112C11.7654 11.0166 11.6731 11.0295 11.5823 11.0499C12.0119 12.1852 12.4343 13.302 12.8681 14.4487C12.7423 14.4134 12.6544 14.3821 12.5638 14.3646C12.5258 14.3581 12.4905 14.3407 12.4623 14.3144C12.434 14.2882 12.4141 14.2542 12.4048 14.2168C12.0604 13.2995 11.7138 12.383 11.3651 11.4673C11.3495 11.4261 11.3307 11.3862 11.3033 11.3225C11.2652 11.3964 11.2415 11.4448 11.2158 11.4921C11.124 11.6599 11.0409 11.8326 10.9368 11.9921C10.885 12.079 10.8064 12.1467 10.7127 12.185C10.6191 12.2232 10.5155 12.2299 10.4177 12.2041C10.2045 12.1575 9.99482 12.0961 9.79015 12.0203C9.67044 11.9651 9.53635 11.9491 9.40701 11.9745C9.27766 12 9.15966 12.0657 9.06982 12.1621C9.04756 12.1841 9.02318 12.2037 8.99969 12.224C8.81917 12.3829 8.81917 12.3829 8.91137 12.6097C8.9157 12.6206 8.91888 12.6319 8.92294 12.643C9.07388 13.0555 9.22323 13.4686 9.37646 13.8802C9.5387 14.3155 9.70598 14.7491 9.86875 15.1842C9.88988 15.225 9.89613 15.2719 9.88641 15.3167C9.83104 15.4257 9.76012 15.5269 9.6869 15.6442C9.67114 15.6231 9.657 15.6007 9.6446 15.5774C9.39265 14.9219 9.14103 14.2663 8.88973 13.6106C8.77245 13.3053 8.65489 12.9999 8.53293 12.6965C8.52392 12.6819 8.51159 12.6696 8.49695 12.6607C8.48231 12.6517 8.46577 12.6463 8.44867 12.645C8.31072 12.6456 8.17285 12.6552 8.01123 12.6627C7.63923 13.6378 7.25937 14.6334 6.869 15.6567C6.80064 15.5495 6.75321 15.4653 6.69589 15.3884C6.67321 15.3597 6.65911 15.3252 6.6552 15.2888C6.65129 15.2524 6.65775 15.2156 6.67381 15.1827C6.99697 14.3215 7.31307 13.4575 7.64258 12.5987C7.69487 12.4623 7.69822 12.3837 7.59039 12.2672C7.31554 11.9706 7.10923 11.9005 6.72486 12.0277C6.56589 12.0807 6.40788 12.1387 6.24608 12.1823C5.92443 12.2687 5.72244 12.192 5.54607 11.9113C5.45713 11.77 5.38771 11.6156 5.3084 11.4678C5.288 11.4297 5.26424 11.3937 5.23068 11.3388C5.20304 11.408 5.18502 11.4508 5.16886 11.4943C4.82318 12.4069 4.47741 13.3195 4.13155 14.2322C4.11813 14.2675 4.10152 14.3185 4.07406 14.3287C3.95306 14.3733 3.82756 14.4055 3.67494 14.4508C4.11062 13.2999 4.53305 12.1841 4.95822 11.0613C4.92668 11.0482 4.89445 11.0368 4.86169 11.0272C4.63806 10.9771 4.63727 10.9772 4.55716 11.1883C4.25458 11.9875 3.95188 12.787 3.64907 13.5866C3.54308 13.8677 3.43163 14.1472 3.33456 14.4314C3.32582 14.4635 3.32426 14.4971 3.32998 14.5299C3.33571 14.5626 3.34858 14.5937 3.36768 14.6209C3.39965 14.6577 3.48426 14.6518 3.54635 14.6579C3.57359 14.6557 3.60024 14.6487 3.62504 14.6372C4.26562 14.4495 4.90664 14.2631 5.54642 14.072C5.56167 14.0644 5.57829 14.0601 5.59528 14.0592C5.61227 14.0583 5.62925 14.0609 5.64519 14.0669C5.66113 14.0728 5.67569 14.0819 5.68798 14.0937C5.70026 14.1055 5.71 14.1196 5.71661 14.1353C6.07943 14.7188 6.44598 15.3 6.81627 15.8788C6.8516 15.9332 6.93391 15.9965 6.98593 15.9898C7.02099 15.9791 7.05339 15.961 7.081 15.9369C7.10861 15.9127 7.13081 15.883 7.14614 15.8497C7.21971 15.6952 7.27253 15.5307 7.33338 15.3702C7.60452 14.6551 7.87536 13.9399 8.14591 13.2248C8.18256 13.1276 8.21436 13.0289 8.25817 12.903C8.2748 12.9259 8.28999 12.9499 8.30365 12.9748V12.9748ZM8.28669 1.11354C7.26879 1.11216 6.27334 1.4127 5.42626 1.97715C4.57919 2.5416 3.91855 3.3446 3.52791 4.28456C3.13728 5.22453 3.03419 6.25924 3.2317 7.2578C3.4292 8.25636 3.91843 9.17391 4.63749 9.89439C5.35654 10.6149 6.27313 11.1059 7.2713 11.3054C8.26947 11.5049 9.30438 11.4038 10.2451 11.015C11.1859 10.6263 11.9901 9.96721 12.5563 9.12125C13.1224 8.27529 13.4249 7.28044 13.4255 6.26253C13.4265 5.58692 13.2943 4.91773 13.0366 4.29322C12.7788 3.66872 12.4005 3.10113 11.9232 2.62291C11.446 2.14468 10.8792 1.76519 10.2552 1.50613C9.63122 1.24707 8.96231 1.11351 8.28669 1.1131V1.11354ZM12.9606 6.27914C12.9634 8.90892 10.7995 10.9607 8.27821 10.9584C5.73763 10.9562 3.5966 8.89028 3.60182 6.28638C3.60133 5.67187 3.72189 5.06329 3.95661 4.49537C4.19133 3.92745 4.53561 3.41133 4.96979 2.97647C5.40397 2.54161 5.91955 2.19652 6.4871 1.96091C7.05465 1.72531 7.66304 1.60379 8.27755 1.60331C8.89206 1.60283 9.50064 1.72339 10.0686 1.95811C10.6365 2.19282 11.1526 2.5371 11.5875 2.97128C12.0223 3.40547 12.3674 3.92105 12.603 4.4886C12.8386 5.05614 12.9601 5.66454 12.9606 6.27905V6.27914Z" fill="url(#paint0_linear)"/>
<path d="M9.22349 9.18119C9.2189 9.1899 9.21264 9.19762 9.20506 9.20391C9.19749 9.2102 9.18874 9.21493 9.17933 9.21784C9.11521 9.24345 9.04518 9.24319 8.98044 9.26642C8.96331 9.2726 8.94034 9.26156 8.92259 9.26642C8.84363 9.29008 8.76026 9.27525 8.68095 9.2983C8.64778 9.30261 8.61426 9.30368 8.58089 9.30148C8.18628 9.33248 7.79105 9.31782 7.39627 9.31402C7.29937 9.31499 7.20252 9.30968 7.10632 9.29812C7.04983 9.29726 6.99351 9.29186 6.93789 9.28196C6.86971 9.25997 6.79994 9.27622 6.73237 9.25546C6.69281 9.24328 6.64803 9.24478 6.6059 9.2355C6.53657 9.22014 6.46645 9.20901 6.39791 9.18931C6.34109 9.1732 6.2833 9.16072 6.22489 9.15195C6.16625 9.14259 6.11096 9.12122 6.05267 9.11018C5.97319 9.09534 5.89882 9.06249 5.81872 9.04747C5.75484 9.03157 5.69181 9.01241 5.62989 8.99007C5.54413 8.96463 5.45802 8.94043 5.37209 8.91561C5.33217 8.90465 5.29284 8.89162 5.25427 8.87658C5.13696 8.8381 5.02297 8.79014 4.91345 8.73315C4.89419 8.72131 4.88996 8.70974 4.89455 8.69367C4.91221 8.63025 4.92988 8.5664 4.95257 8.50449C4.98234 8.42306 5.01537 8.34278 5.04972 8.26303C5.0824 8.18663 5.12259 8.11288 5.15147 8.03534C5.17678 7.97761 5.19745 7.91795 5.21329 7.85694C5.21974 7.82897 5.22922 7.80178 5.24155 7.77586C5.2602 7.7319 5.27357 7.68589 5.28138 7.63879C5.29038 7.59705 5.30239 7.55602 5.31733 7.51603C5.34436 7.43654 5.35637 7.3529 5.38065 7.27288C5.39973 7.21 5.4128 7.14509 5.42596 7.08185C5.4428 7.01843 5.45627 6.95416 5.46632 6.88932C5.47412 6.8307 5.48629 6.77275 5.50271 6.71595C5.51625 6.66975 5.52576 6.62247 5.53115 6.57464C5.53583 6.5438 5.5427 6.51334 5.55173 6.48349C5.55919 6.41499 5.57303 6.34734 5.59306 6.28142C5.60474 6.24771 5.61143 6.21249 5.61293 6.17685C5.61977 6.11386 5.63197 6.05158 5.64941 5.99067C5.67714 5.88928 5.7024 5.78683 5.72766 5.68518C5.75778 5.5633 5.80114 5.44619 5.83647 5.32643C5.84945 5.28227 5.87577 5.23934 5.89105 5.19457C5.9194 5.11181 5.96797 5.0393 6.00215 4.95964C6.01934 4.92507 6.03968 4.89217 6.06292 4.86134C6.14568 4.74843 6.23818 4.64298 6.33935 4.54622C6.42964 4.46181 6.52557 4.38364 6.62648 4.31226C6.68497 4.27354 6.74544 4.23787 6.80762 4.2054C6.86302 4.17011 6.92117 4.13937 6.98152 4.11346C7.06937 4.06858 7.16098 4.03149 7.25531 4.00262C7.31397 3.98821 7.37151 3.96952 7.42744 3.94671C7.45748 3.93688 7.48814 3.92903 7.51921 3.92322C7.58663 3.90709 7.65484 3.89447 7.72358 3.88542C7.84512 3.86664 7.96783 3.85634 8.0908 3.85459C8.17938 3.85706 8.26755 3.86746 8.35426 3.88568C8.45628 3.9026 8.55711 3.92602 8.65613 3.95581C8.76494 3.98969 8.87189 4.02925 8.97655 4.07433C9.07308 4.12058 9.16714 4.17178 9.25838 4.22774C9.29477 4.24461 9.32709 4.26913 9.35314 4.29963C9.36845 4.31735 9.3872 4.33177 9.40826 4.34203C9.44067 4.36084 9.45692 4.39749 9.4813 4.42452C9.54526 4.49559 9.621 4.5551 9.70518 4.60045C9.71565 4.60758 9.7285 4.61031 9.74096 4.60804C9.75342 4.60578 9.76449 4.5987 9.77178 4.58835C9.80854 4.54351 9.83796 4.49313 9.85895 4.43909C9.90311 4.33523 9.95 4.23216 9.98515 4.12476C10.0046 4.06559 10.0293 4.0088 10.0465 3.94812C10.0719 3.85618 10.1079 3.76601 10.136 3.67434C10.1602 3.59538 10.1765 3.51404 10.1978 3.43411C10.2204 3.35322 10.2331 3.26988 10.2357 3.18593C10.2372 3.15423 10.2455 3.12321 10.26 3.09496C10.2649 3.08073 10.2728 3.06776 10.2833 3.057C10.2938 3.04623 10.3066 3.03794 10.3207 3.03272C10.3348 3.0275 10.3499 3.02549 10.3649 3.02683C10.3799 3.02817 10.3944 3.03283 10.4073 3.04047C10.4816 3.07054 10.5534 3.10657 10.6218 3.14822C10.6759 3.18099 10.7262 3.22002 10.777 3.25791C10.8293 3.29705 10.8788 3.33978 10.9252 3.3858C10.9525 3.41282 10.9587 3.44603 10.9301 3.46891C10.8641 3.5219 10.8043 3.58098 10.7376 3.63283C10.7033 3.66471 10.6718 3.69949 10.6435 3.73678C10.5847 3.80143 10.538 3.87535 10.4845 3.94371C10.4158 4.03631 10.3533 4.13334 10.2974 4.23419C10.247 4.31728 10.2065 4.40592 10.1766 4.49835C10.1446 4.58421 10.1311 4.67584 10.1368 4.76728C10.1368 4.79551 10.1455 4.82306 10.1616 4.84623C10.1778 4.8694 10.2006 4.88709 10.2271 4.89693C10.3204 4.94105 10.4095 4.99377 10.4931 5.0544C10.535 5.0809 10.5778 5.10607 10.6188 5.13389C10.6479 5.1535 10.6754 5.17575 10.7025 5.19819C10.718 5.21414 10.7367 5.22663 10.7573 5.23484C10.7887 5.24367 10.7973 5.27962 10.8219 5.29507C10.8614 5.32506 10.8987 5.35792 10.9334 5.39337C10.9921 5.44629 11.0453 5.50486 11.0924 5.56824C11.1259 5.61028 11.1454 5.66442 11.1786 5.70876C11.2948 5.89833 11.3811 6.1046 11.4347 6.32037C11.4477 6.38502 11.4534 6.45125 11.468 6.51467C11.4887 6.64093 11.4925 6.76939 11.4792 6.89665C11.4783 6.95971 11.47 7.02244 11.4542 7.08353C11.438 7.14111 11.4323 7.20214 11.4174 7.26105C11.3973 7.34389 11.3728 7.42562 11.344 7.50587C11.3027 7.61777 11.2535 7.72614 11.2037 7.83459C11.1605 7.9167 11.1127 7.99631 11.0606 8.07305C11.0259 8.13064 10.9821 8.18107 10.9437 8.23565C10.93 8.25326 10.9148 8.26969 10.8984 8.28475C10.8422 8.34181 10.7862 8.39895 10.7292 8.45512C10.689 8.48645 10.644 8.51103 10.5959 8.52789C10.5734 8.53893 10.5492 8.51694 10.5504 8.48824C10.546 8.43674 10.5507 8.38487 10.5643 8.33501C10.57 8.30912 10.5713 8.28245 10.5681 8.25614C10.5687 8.19767 10.5891 8.14132 10.5857 8.08206C10.5781 7.89287 10.5235 7.70856 10.4267 7.54579C10.4058 7.51067 10.3802 7.47853 10.3506 7.45023C10.3302 7.43106 10.3134 7.39521 10.2902 7.37021C10.2414 7.32634 10.19 7.28546 10.1363 7.2478C10.0845 7.20701 10.0272 7.17384 9.96608 7.14933C9.91754 7.13046 9.86793 7.11444 9.81752 7.10137C9.7357 7.07688 9.6506 7.06512 9.5652 7.06648C9.47093 7.06435 9.37668 7.07151 9.28381 7.08786C9.27065 7.09218 9.25788 7.09765 9.24566 7.1042C9.17271 7.1329 9.0972 7.15657 9.02742 7.19163C8.98343 7.21107 8.94448 7.24035 8.91358 7.27721C8.89917 7.29161 8.8826 7.30368 8.86448 7.31298C8.77567 7.38041 8.69423 7.45703 8.62151 7.54155C8.52645 7.63982 8.45146 7.75568 8.40072 7.88264C8.37533 7.9426 8.36194 8.00696 8.36133 8.07208C8.35411 8.19574 8.36003 8.31981 8.37899 8.44222C8.40272 8.53172 8.43783 8.6178 8.48347 8.69835C8.51646 8.76122 8.5625 8.81633 8.61851 8.85997C8.68513 8.91959 8.75938 8.97008 8.83931 9.01011C8.89601 9.03414 8.95094 9.06814 9.00861 9.09137C9.0631 9.12405 9.12288 9.14697 9.18525 9.15911C9.19717 9.16034 9.20998 9.1735 9.22349 9.18119Z" fill="#80B996"/>
<defs>
<linearGradient id="paint0_linear" x1="8.28078" y1="16" x2="8.28078" y2="-0.000162127" gradientUnits="userSpaceOnUse">
<stop stop-color="#3E6EC6"/>
<stop offset="0.145" stop-color="#5393F5"/>
<stop offset="1" stop-color="#FF9BAF"/>
</linearGradient>
</defs>
</svg>
