<svg width="20" height="20" viewBox="0 0 20 20" fill="none" xmlns="http://www.w3.org/2000/svg">
<path fill-rule="evenodd" clip-rule="evenodd" d="M10 4.72095C11.5628 4.72095 12.8464 3.52603 12.9872 2L19 5.80157L16.4542 9.72096L15.6866 9.23566C16.3339 12.2848 16.8457 15.6005 16.2069 16.321C14.9655 17.721 10 17.721 10 17.721C10 17.721 5.03448 17.721 3.7931 16.321C3.15428 15.6005 3.66607 12.2848 4.31341 9.23566L3.54583 9.72095L1 5.80156L7.01281 2C7.15356 3.52603 8.43724 4.72095 10 4.72095ZM11 6.5C11 7.05228 10.5523 7.5 10 7.5C9.44771 7.5 9 7.05228 9 6.5C9 5.94772 9.44771 5.5 10 5.5C10.5523 5.5 11 5.94772 11 6.5ZM11 9.5C11 10.0523 10.5523 10.5 10 10.5C9.44771 10.5 9 10.0523 9 9.5C9 8.94771 9.44771 8.5 10 8.5C10.5523 8.5 11 8.94771 11 9.5Z" fill="currentColor"/>
</svg>
