<svg width="20" height="20" viewBox="0 0 20 20" fill="none" xmlns="http://www.w3.org/2000/svg">
<path fill-rule="evenodd" clip-rule="evenodd" d="M4.5 2L2.5 5L2.53846 6H1V7V7.3H2.58846L2.87308 14.7H1V15V16H2.92308L3 18H6L6.07692 16H8.92308L9 18H12L12.0769 16H14.4231L14.5 18H17.5L17.5769 16H19V15V14.7H17.6269L17.9115 7.3H19V7V6H17.9615L18 5L16 2L14 5L14.0385 6H12.4615L12.5 5L10.5 2L8.5 5L8.53846 6H6.46154L6.5 5L4.5 2ZM14.3731 14.7L14.0885 7.3H12.4115L12.1269 14.7H14.3731ZM8.87308 14.7L8.58846 7.3H6.41154L6.12692 14.7H8.87308Z" fill="currentColor"/>
</svg>
