<svg width="20" height="20" viewBox="0 0 20 20" fill="none" xmlns="http://www.w3.org/2000/svg">
<g clip-path="url(#clip0_226:340)">
<path fill-rule="evenodd" clip-rule="evenodd" d="M18.2486 8.84956C18.5613 9.32296 18.431 9.96016 17.9576 10.2728C18.431 9.96016 19.3512 10.5191 19.6639 10.9925C19.9514 11.4279 19.5868 11.6644 19.1929 11.9198L19.1929 11.9198C19.1586 11.9421 19.1241 11.9644 19.0897 11.9871C18.6612 12.2701 17.9791 12.1694 17.6665 11.696L9.25106 17.2537C9.54653 17.7305 8.99307 18.6379 8.52367 18.9479C8.05028 19.2605 7.13004 18.7017 6.8174 18.2283C6.56521 17.8464 7.0643 17.4526 7.51519 17.1505C7.06627 17.3457 6.52865 17.1965 6.2496 16.7739C6.24074 16.7605 6.23014 16.7449 6.21823 16.7274C6.05981 16.4946 5.67178 15.9245 6.1121 15.6337C6.58549 15.3211 7.65127 15.1684 7.96391 15.6418L16.5343 9.98172C15.9683 9.12456 16.352 8.87112 16.8254 8.55848C17.6826 7.99241 17.936 8.37617 18.2486 8.84956Z" fill="currentColor"/>
<path fill-rule="evenodd" clip-rule="evenodd" d="M16 6.47739C16 8.3543 15.5466 9.44441 14.7855 10.0776C14.9765 10.3732 15.0396 10.8147 15.0396 11.4523C15.0396 13.0926 12.9944 13.0428 10.1962 12.9746H10.1962H10.1962C9.59969 12.9601 8.96899 12.9447 8.31658 12.9447C3.39719 12.9447 2.07745 12.9447 1.7234 12.36C1.5936 12.1456 1.5936 11.8526 1.5936 11.4523C1.5936 11.3133 1.6791 11.1789 1.83906 11.0512C2.00826 11.1394 2.24259 11.194 2.50153 11.194C2.70546 11.194 2.89413 11.2357 3.04774 11.2697L3.04775 11.2697C3.28276 11.3217 3.43571 11.3556 3.43571 11.194C3.43571 11.0883 3.51632 10.9906 3.58195 10.911C3.68236 10.7893 3.74771 10.7101 3.43571 10.7101C3.27421 10.7101 3.03073 10.6839 2.77243 10.6561C2.20558 10.5951 1.56735 10.5265 1.56735 10.7101C1.56735 10.7606 1.58229 10.8093 1.60999 10.855C0.999495 10.3403 0.633163 9.68211 0.633163 8.96482C0.633163 8.35364 1.12751 5.9799 3.51444 5.9799C3.83234 5.9799 4.16778 6.0036 4.51044 6.04859C4.88782 3.77695 8.20145 2 11.1979 2C14.3804 2 16 4.00459 16 6.47739ZM12.7775 7.32283C12.7775 7.85732 11.3528 8.48502 10.5789 8.48502C6.70534 8.48501 6.28931 7.80576 6.23825 6.35504C6.16961 4.40474 8.53495 4.41527 9.40787 4.41916L9.50789 4.41947C10.2818 4.41947 12.7775 4.8951 12.7775 7.32283ZM5.36783 8.48501C5.36783 9.01951 4.6767 9.2584 3.9028 9.2584C3.1289 9.2584 2.50152 8.7745 2.56529 8.48501C2.56529 7.95052 3.19266 7.51723 3.96656 7.51723C4.74046 7.51723 5.36783 7.95052 5.36783 8.48501ZM9.04081 11.6779C9.55674 11.6779 9.97499 11.4612 9.97499 11.194C9.97499 10.9267 9.55674 10.7101 9.04081 10.7101C8.90776 10.7101 8.75015 10.6779 8.59751 10.6467C8.1582 10.557 7.75998 10.4757 8.10662 11.194C8.10662 11.4612 8.52487 11.6779 9.04081 11.6779ZM6.70535 11.194C6.70535 11.4612 6.2871 11.6779 5.77117 11.6779C5.25523 11.6779 4.83699 11.4612 4.83699 11.194C4.83699 10.9267 6.18942 10.7101 6.70535 10.7101C7.01735 10.7101 6.952 10.7893 6.85159 10.911C6.78596 10.9906 6.70535 11.0883 6.70535 11.194ZM13.2446 10.7101C13.2446 10.9773 12.8264 11.194 12.3104 11.194C12.0145 11.194 11.7508 11.441 11.5796 11.6014C11.4523 11.7206 11.3763 11.7918 11.3763 11.6779C11.3763 11.4106 11.7945 10.7101 12.3104 10.7101C12.5144 10.7101 12.7031 10.6683 12.8567 10.6343C13.0917 10.5823 13.2446 10.5485 13.2446 10.7101Z" fill="currentColor"/>
</g>
<defs>
<clipPath id="clip0_226:340">
<rect width="20" height="20" fill="white"/>
</clipPath>
</defs>
</svg>
