<svg width="20" height="20" viewBox="0 0 20 20" fill="none" xmlns="http://www.w3.org/2000/svg">
<path fill-rule="evenodd" clip-rule="evenodd" d="M9.20463 2.6875C9.4156 2.4766 9.7017 2.35812 10 2.35812C10.2983 2.35812 10.5844 2.4766 10.7954 2.6875L18.2733 10.1643C18.3789 10.2699 18.4382 10.4131 18.4382 10.5625C18.4382 10.7119 18.3789 10.8551 18.2733 10.9608C18.1676 11.0664 18.0244 11.1257 17.875 11.1257C17.7256 11.1257 17.5824 11.0664 17.4768 10.9608L10 3.48288L2.52326 10.9608C2.41764 11.0664 2.27438 11.1257 2.12501 11.1257C1.97564 11.1257 1.83238 11.0664 1.72676 10.9608C1.62114 10.8551 1.5618 10.7119 1.5618 10.5625C1.5618 10.4131 1.62114 10.2699 1.72676 10.1643L9.20463 2.6875Z" fill="currentColor"/>
<path fill-rule="evenodd" clip-rule="evenodd" d="M16.75 11.4546L10 4.70463L3.25 11.4546V16.1875C3.25 16.6351 3.42779 17.0643 3.74426 17.3807C4.06072 17.6972 4.48995 17.875 4.9375 17.875H8V14C8 13.4477 8.44772 13 9 13H11C11.5523 13 12 13.4477 12 14V17.875H15.0625C15.5101 17.875 15.9393 17.6972 16.2557 17.3807C16.5722 17.0643 16.75 16.6351 16.75 16.1875V11.4546ZM15.625 7.75V3.8125C15.625 3.66332 15.5657 3.52024 15.4602 3.41475C15.3548 3.30926 15.2117 3.25 15.0625 3.25H13.9375C13.7883 3.25 13.6452 3.30926 13.5398 3.41475C13.4343 3.52024 13.375 3.66332 13.375 3.8125V5.5L15.625 7.75Z" fill="currentColor"/>
</svg>
