<svg width="28" height="28" viewBox="0 0 28 28" fill="none" xmlns="http://www.w3.org/2000/svg">
<path fill-rule="evenodd" clip-rule="evenodd" d="M22 4.8H6C5.44772 4.8 5 5.20294 5 5.7V9.3C5 9.79706 5.44772 10.2 6 10.2H22C22.5523 10.2 23 9.79706 23 9.3V5.7C23 5.20294 22.5523 4.8 22 4.8ZM6 3C4.34315 3 3 4.20883 3 5.7V9.3C3 10.7912 4.34315 12 6 12H22C23.6569 12 25 10.7912 25 9.3V5.7C25 4.20883 23.6569 3 22 3H6Z" fill="#444444"/>
<path fill-rule="evenodd" clip-rule="evenodd" d="M22 15.8H6C5.44772 15.8 5 16.2029 5 16.7V20.3C5 20.7971 5.44772 21.2 6 21.2H22C22.5523 21.2 23 20.7971 23 20.3V16.7C23 16.2029 22.5523 15.8 22 15.8ZM6 14C4.34315 14 3 15.2088 3 16.7V20.3C3 21.7912 4.34315 23 6 23H22C23.6569 23 25 21.7912 25 20.3V16.7C25 15.2088 23.6569 14 22 14H6Z" fill="#444444"/>
</svg>
