<svg id="レイヤー_1" data-name="レイヤー 1" xmlns="http://www.w3.org/2000/svg" xmlns:xlink="http://www.w3.org/1999/xlink" viewBox="0 0 256 256"><defs><linearGradient id="名称未設定グラデーション_327" x1="128" y1="221.907" x2="128" y2="40.743" gradientUnits="userSpaceOnUse"><stop offset="0" stop-color="#3e6ec6"/><stop offset="0.145" stop-color="#5393f5"/><stop offset="1" stop-color="#ff9baf"/></linearGradient></defs><path d="M256,256V181.4c-.937.07-1.911.115-2.951.115-19.957,0-19.957-13.615-39.914-13.615s-19.955,13.615-39.911,13.615S153.268,167.9,133.312,167.9,113.356,181.511,93.4,181.511,73.445,167.9,53.49,167.9s-19.956,13.615-39.912,13.615A29.489,29.489,0,0,1,0,178.6V256Z" fill="#d4d3f6"/><path d="M98.49,48.247a61.218,61.218,0,0,0-3.144,5.979,8.4,8.4,0,0,1-8.107,5.331,55.336,55.336,0,0,0-6.85.687,4.5,4.5,0,0,0-3.965,3.918c-.293,1.6-.415,3.239-.583,4.864-.135,1.318-.195,2.645-.341,3.962a6.151,6.151,0,0,1-3.078,4.855c-1.253.742-2.558,1.4-3.839,2.094-1.321.716-2.676,1.376-3.953,2.163a4.92,4.92,0,0,0-2.471,5.878c.623,2.3,1.309,4.588,2.11,6.831a7.69,7.69,0,0,1-1.7,8.454c-1.263,1.358-2.485,2.762-3.641,4.213-2.752,3.454-2.723,5.4.085,8.831.867,1.06,1.825,2.046,2.706,3.095.709.846,1.4,1.71,2.037,2.612a6.573,6.573,0,0,1,.533,6.756,52.3,52.3,0,0,0-2.224,7.337,4.346,4.346,0,0,0,1.53,4.639,19.456,19.456,0,0,0,2.888,1.853c1.632.883,3.315,1.672,4.97,2.515a7.159,7.159,0,0,1,4.112,6.213c.185,2.379.307,4.769.64,7.129.486,3.446,1.878,4.786,5.325,5.218,2.059.258,4.138.4,6.213.475A7.607,7.607,0,0,1,94.8,168.7c.973,1.983,1.948,3.974,3.062,5.879,1.836,3.143,3.594,3.864,7.1,2.914,2.087-.566,4.138-1.279,6.173-2.016a7.345,7.345,0,0,1,7.877,1.556c1.627,1.428,3.265,2.849,4.967,4.186a5.918,5.918,0,0,0,8-.006c1.84-1.447,3.591-3.008,5.385-4.515a6.78,6.78,0,0,1,6.828-1.34c1.766.57,3.514,1.2,5.281,1.766,5.079,1.634,7,.818,9.392-3.943.893-1.777,1.771-3.563,2.724-5.308a6.469,6.469,0,0,1,5.177-3.489c1.536-.178,3.083-.252,4.621-.414,1.448-.152,2.9-.292,4.333-.557a4.493,4.493,0,0,0,3.852-3.875,33.792,33.792,0,0,0,.648-6.05c-.044-4.641,2.006-7.693,6.3-9.408a33.573,33.573,0,0,0,4.929-2.574,4.823,4.823,0,0,0,2.391-5.647c-.493-1.962-1.225-3.865-1.891-5.781-1.281-3.685-1.212-7.078,1.786-10.034a39.708,39.708,0,0,0,3.623-4.226c2.35-3.083,2.341-4.917-.036-7.99-1.243-1.606-2.578-3.147-3.947-4.649a7.57,7.57,0,0,1-1.652-8.339c.677-1.821,1.3-3.668,1.824-5.538,1.136-4.065.4-5.791-3.327-7.834-1.782-.977-3.621-1.852-5.444-2.752a7.433,7.433,0,0,1-4.4-6.6c-.152-2.248-.265-4.508-.579-6.736-.512-3.623-1.849-4.929-5.454-5.405-2.013-.266-4.048-.409-6.078-.488a7.773,7.773,0,0,1-7.318-4.794c-.8-1.724-1.627-3.441-2.556-5.1-2.091-3.728-3.9-4.443-8-3.211-2.073.622-4.114,1.35-6.176,2.009a6.5,6.5,0,0,1-6.482-1.178c-1.465-1.209-2.912-2.44-4.359-3.671-4.4-3.742-6.342-3.731-10.686.042-1.435,1.246-2.879,2.482-4.348,3.686a6.23,6.23,0,0,1-5.753,1.182c-1.411-.358-2.781-.874-4.179-1.286-1.814-.535-3.638-1.036-5.457-1.552A5.028,5.028,0,0,0,98.49,48.247Zm29.493,3.839a59.525,59.525,0,1,1-59.49,59.544A59.581,59.581,0,0,1,127.983,52.086Zm.276,135.567c1.013,2.575,2.044,5.144,3.021,7.733q4.608,12.218,9.178,24.449c.368.982.748,1.97,1.969,2.065,1.162.092,1.667-.813,2.193-1.649,4.073-6.474,8.165-12.934,12.21-19.425.506-.811.979-1.1,1.916-.756,1.244.452,2.536.772,3.809,1.144,6.279,1.836,12.549,3.7,18.848,5.461a2.549,2.549,0,0,0,2.112-.477c.4-.4.35-1.351.335-2.055a4.5,4.5,0,0,0-.479-1.367q-3.432-9.053-6.865-18.1c-2.305-6.074-4.6-12.153-6.941-18.213-.169-.438-.693-1.038-1.059-1.043a19.415,19.415,0,0,0-3.124.438c4.864,12.855,9.647,25.5,14.559,38.484-1.425-.4-2.42-.754-3.446-.952a2.245,2.245,0,0,1-1.8-1.674q-5.85-15.579-11.772-31.131c-.177-.467-.39-.919-.7-1.64-.431.837-.7,1.385-.991,1.92-1.039,1.9-1.98,3.856-3.159,5.662a5.273,5.273,0,0,1-5.877,2.4,53.214,53.214,0,0,1-7.106-2.081,7.088,7.088,0,0,0-8.156,1.606c-.252.248-.528.471-.794.7-2.044,1.8-2.044,1.8-1,4.368.049.123.085.251.131.376,1.709,4.671,3.4,9.349,5.135,14.009,1.837,4.929,3.731,9.838,5.574,14.765a2.232,2.232,0,0,1,.2,1.5c-.627,1.234-1.43,2.38-2.259,3.708a5.933,5.933,0,0,1-.479-.756q-4.279-11.133-8.547-22.27c-1.328-3.457-2.659-6.914-4.04-10.35a1.236,1.236,0,0,0-.954-.583c-1.562.007-3.123.116-4.953.2-4.212,11.041-8.513,22.314-12.933,33.9-.774-1.213-1.311-2.167-1.96-3.037a2.2,2.2,0,0,1-.25-2.329c3.659-9.752,7.238-19.534,10.969-29.258.592-1.544.63-2.435-.591-3.753-3.112-3.359-5.448-4.152-9.8-2.712-1.8.6-3.589,1.257-5.421,1.75-3.642.979-5.929.11-7.926-3.068-1.007-1.6-1.793-3.348-2.691-5.022-.231-.431-.5-.839-.88-1.46-.313.783-.517,1.268-.7,1.76q-5.871,15.5-11.745,31c-.152.4-.34.978-.651,1.093-1.37.505-2.791.87-4.519,1.382,4.933-13.031,9.716-25.664,14.53-38.378a10.709,10.709,0,0,0-1.093-.386c-2.532-.567-2.541-.566-3.448,1.824Q80.7,181,75.557,194.58c-1.2,3.183-2.462,6.348-3.561,9.566a2.563,2.563,0,0,0,.375,2.146c.362.416,1.32.349,2.023.418a2.626,2.626,0,0,0,.891-.234c7.253-2.125,14.511-4.236,21.755-6.4a1.412,1.412,0,0,1,1.927.717q6.162,9.911,12.451,19.741c.4.616,1.332,1.333,1.921,1.257a2.948,2.948,0,0,0,1.814-1.586c.833-1.75,1.431-3.612,2.12-5.43q4.605-12.145,9.2-24.291c.415-1.1.775-2.218,1.271-3.644A7.773,7.773,0,0,1,128.259,187.653Zm-.192-134.3a58.264,58.264,0,1,0,58.185,58.3A58.221,58.221,0,0,0,128.067,53.348Zm52.921,58.488c.031,29.776-24.47,53.008-53.017,52.982-28.766-.025-53.008-23.417-52.949-52.9a52.983,52.983,0,1,1,105.966-.083Z" fill="url(#名称未設定グラデーション_327)"/><path d="M138.674,144.7a.848.848,0,0,1-.5.415c-.726.29-1.519.287-2.252.55-.194.07-.454-.055-.655,0-.894.268-1.838.1-2.736.361a5.817,5.817,0,0,1-1.133.036c-4.468.351-8.943.185-13.413.142a25.383,25.383,0,0,1-3.283-.18,11.915,11.915,0,0,1-1.907-.183c-.772-.249-1.562-.065-2.327-.3-.448-.138-.955-.121-1.432-.226-.785-.174-1.579-.3-2.355-.523a15.741,15.741,0,0,0-1.959-.423c-.664-.106-1.29-.348-1.95-.473-.9-.168-1.742-.54-2.649-.71a21.857,21.857,0,0,1-2.138-.65c-.971-.288-1.946-.562-2.919-.843a13.534,13.534,0,0,1-1.334-.442,25.732,25.732,0,0,1-3.859-1.624c-.218-.134-.266-.265-.214-.447.2-.718.4-1.441.657-2.142.337-.922.711-1.831,1.1-2.734.37-.865.825-1.7,1.152-2.578a13.434,13.434,0,0,0,.7-2.02,4.484,4.484,0,0,1,.32-.918,6.839,6.839,0,0,0,.451-1.552,9.98,9.98,0,0,1,.407-1.39c.306-.9.442-1.847.717-2.753.216-.712.364-1.447.513-2.163a21.072,21.072,0,0,0,.457-2.18,13.461,13.461,0,0,1,.412-1.963,9.447,9.447,0,0,0,.322-1.6,7.4,7.4,0,0,1,.233-1.032,12.54,12.54,0,0,1,.468-2.288,4.152,4.152,0,0,0,.225-1.184,12.6,12.6,0,0,1,.413-2.108c.314-1.148.6-2.308.886-3.459.341-1.38.832-2.706,1.232-4.062.147-.5.445-.986.618-1.493.321-.937.871-1.758,1.258-2.66a7.1,7.1,0,0,1,.688-1.113,27.139,27.139,0,0,1,3.13-3.568,30.844,30.844,0,0,1,3.251-2.649,23.008,23.008,0,0,1,2.051-1.21,13.8,13.8,0,0,1,1.969-1.041,19.105,19.105,0,0,1,3.1-1.255,14.016,14.016,0,0,0,1.949-.633,8.167,8.167,0,0,1,1.039-.266,22.664,22.664,0,0,1,2.314-.428,30.03,30.03,0,0,1,4.158-.349,16.78,16.78,0,0,1,2.983.352,27.462,27.462,0,0,1,3.418.794,36.914,36.914,0,0,1,3.628,1.342,35.163,35.163,0,0,1,3.191,1.737,3.158,3.158,0,0,1,1.073.814,1.957,1.957,0,0,0,.624.48c.367.213.551.628.827.934a9.42,9.42,0,0,0,2.535,1.992.546.546,0,0,0,.754-.137,6.212,6.212,0,0,0,.987-1.69c.5-1.176,1.031-2.343,1.429-3.559.22-.67.5-1.313.695-2,.287-1.041.695-2.062,1.013-3.1.274-.894.459-1.815.7-2.72a11.782,11.782,0,0,0,.429-2.81,2.525,2.525,0,0,1,.275-1.03,1.147,1.147,0,0,1,1.668-.617,16.816,16.816,0,0,1,2.429,1.22c.612.371,1.182.813,1.757,1.242a15.928,15.928,0,0,1,1.678,1.448c.309.306.379.682.055.941-.747.6-1.424,1.269-2.179,1.856a9.235,9.235,0,0,0-1.066,1.177c-.666.732-1.194,1.569-1.8,2.343a29.634,29.634,0,0,0-2.119,3.289,14.224,14.224,0,0,0-1.367,2.991,7.4,7.4,0,0,0-.451,3.045,1.569,1.569,0,0,0,1.022,1.468,18.833,18.833,0,0,1,3.012,1.783c.475.3.959.585,1.424.9.329.222.64.474.947.728a1.784,1.784,0,0,0,.621.415c.355.1.453.507.731.682a11.475,11.475,0,0,1,1.263,1.113,13.576,13.576,0,0,1,1.8,1.98c.379.476.6,1.089.976,1.591a24.614,24.614,0,0,1,2.9,6.925c.147.732.211,1.482.377,2.2a16.3,16.3,0,0,1,.127,4.325,9.014,9.014,0,0,1-.283,2.116c-.184.652-.249,1.343-.417,2.01a27.333,27.333,0,0,1-.831,2.772c-.468,1.267-1.025,2.494-1.589,3.722a27.981,27.981,0,0,1-1.62,2.7c-.393.652-.889,1.223-1.324,1.841a4.478,4.478,0,0,1-.513.556c-.636.646-1.27,1.293-1.916,1.929a5.313,5.313,0,0,1-1.509.824c-.255.125-.529-.124-.515-.449a4.984,4.984,0,0,1,.157-1.735,2.637,2.637,0,0,0,.043-.893c.007-.662.238-1.3.2-1.971a12.9,12.9,0,0,0-1.8-6.072,5.169,5.169,0,0,0-.862-1.082c-.231-.217-.421-.623-.684-.906a18.42,18.42,0,0,0-1.743-1.386,7.8,7.8,0,0,0-1.927-1.115,15.122,15.122,0,0,0-1.682-.543,9.44,9.44,0,0,0-2.857-.395,16.257,16.257,0,0,0-3.186.242,2.7,2.7,0,0,0-.432.185c-.826.325-1.681.593-2.471.99a3.558,3.558,0,0,0-1.289.969,2.222,2.222,0,0,1-.556.405,17.944,17.944,0,0,0-2.751,2.588,11.915,11.915,0,0,0-2.5,3.862,5.639,5.639,0,0,0-.446,2.145,19.834,19.834,0,0,0,.2,4.191,12.252,12.252,0,0,0,1.183,2.9,5.647,5.647,0,0,0,1.529,1.83,11.413,11.413,0,0,0,2.5,1.7c.642.272,1.264.657,1.917.92a6.184,6.184,0,0,0,2,.767C138.376,144.464,138.521,144.613,138.674,144.7Z" fill="#80b996"/></svg>