<svg width="20" height="20" viewBox="0 0 20 20" fill="none" xmlns="http://www.w3.org/2000/svg">
<path d="M8.5 5C8.5 4.60218 8.65804 4.22064 8.93934 3.93934C9.22064 3.65804 9.60218 3.5 10 3.5C10.3978 3.5 10.7794 3.65804 11.0607 3.93934C11.342 4.22064 11.5 4.60218 11.5 5C11.5 5.39782 11.342 5.77936 11.0607 6.06066C10.7794 6.34196 10.3978 6.5 10 6.5C9.60218 6.5 9.22064 6.34196 8.93934 6.06066C8.65803 5.77936 8.5 5.39782 8.5 5ZM8.5 10C8.5 9.60218 8.65803 9.22064 8.93934 8.93934C9.22064 8.65803 9.60218 8.5 10 8.5C10.3978 8.5 10.7794 8.65804 11.0607 8.93934C11.342 9.22064 11.5 9.60218 11.5 10C11.5 10.3978 11.342 10.7794 11.0607 11.0607C10.7794 11.342 10.3978 11.5 10 11.5C9.60217 11.5 9.22064 11.342 8.93934 11.0607C8.65803 10.7794 8.5 10.3978 8.5 10ZM8.5 15C8.5 14.6022 8.65803 14.2206 8.93934 13.9393C9.22064 13.658 9.60217 13.5 10 13.5C10.3978 13.5 10.7794 13.658 11.0607 13.9393C11.342 14.2206 11.5 14.6022 11.5 15C11.5 15.3978 11.342 15.7794 11.0607 16.0607C10.7794 16.342 10.3978 16.5 10 16.5C9.60217 16.5 9.22064 16.342 8.93934 16.0607C8.65803 15.7794 8.5 15.3978 8.5 15Z" fill="currentColor"/>
</svg>
