<svg width="20" height="20" viewBox="0 0 20 20" fill="none" xmlns="http://www.w3.org/2000/svg">
<path fill-rule="evenodd" clip-rule="evenodd" d="M4.5 7C4.71522 7 4.90628 7.13772 4.97434 7.34189L5.88342 10.0691C6.2452 10.0237 6.61844 10 7 10C7.21356 10 7.42451 10.0074 7.63231 10.0219L8.52566 7.34189C8.59092 7.14611 8.76976 7.01054 8.97589 7.00059C9.18202 6.99063 9.37309 7.10835 9.45691 7.29693L11.1529 11.113C12.2913 11.841 13 12.8653 13 14C13 16.2091 10.3137 18 7 18C3.68629 18 1 16.2091 1 14C1 12.899 1.66719 11.902 2.74673 11.1787L4.02566 7.34189C4.09372 7.13772 4.28478 7 4.5 7Z" fill="currentColor"/>
<path fill-rule="evenodd" clip-rule="evenodd" d="M11.5149 5.87873C11.247 5.81175 11.0842 5.54029 11.1511 5.27239L11.9086 2.24253C11.9756 1.97464 12.247 1.81176 12.5149 1.87873C12.7828 1.9457 12.9457 2.21717 12.8787 2.48507L12.1213 5.51493C12.0543 5.78282 11.7828 5.9457 11.5149 5.87873Z" fill="currentColor"/>
<path fill-rule="evenodd" clip-rule="evenodd" d="M12.7 6.6C12.5343 6.37908 12.5791 6.06568 12.8 5.9L16 3.5C16.2209 3.33431 16.5343 3.37908 16.7 3.6C16.8657 3.82091 16.8209 4.13431 16.6 4.3L13.4 6.7C13.1791 6.86568 12.8657 6.82091 12.7 6.6Z" fill="currentColor"/>
<path fill-rule="evenodd" clip-rule="evenodd" d="M13.7764 8.55279C13.6529 8.3058 13.753 8.00546 14 7.88197L17.1056 6.32918C17.3526 6.20569 17.6529 6.3058 17.7764 6.55279C17.8999 6.79978 17.7998 7.10011 17.5528 7.22361L14.4472 8.7764C14.2002 8.89989 13.8999 8.79978 13.7764 8.55279Z" fill="currentColor"/>
</svg>
