<svg width="20" height="20" viewBox="0 0 20 20" fill="none" xmlns="http://www.w3.org/2000/svg">
<path fill-rule="evenodd" clip-rule="evenodd" d="M8.41455 4.93545C8.15258 5.02278 7.86942 4.8812 7.78209 4.61923L6.98721 2.23458C6.89989 1.9726 7.04147 1.68944 7.30344 1.60212C7.56541 1.5148 7.84857 1.65638 7.93589 1.91835L8.73078 4.303C8.8181 4.56497 8.67652 4.84813 8.41455 4.93545Z" fill="currentColor"/>
<path fill-rule="evenodd" clip-rule="evenodd" d="M11.7764 4.44722C11.5294 4.32372 11.4293 4.02339 11.5528 3.7764L12.5528 1.7764C12.6763 1.52941 12.9766 1.4293 13.2236 1.55279C13.4706 1.67628 13.5707 1.97662 13.4472 2.22361L12.4472 4.22361C12.3237 4.4706 12.0234 4.57071 11.7764 4.44722Z" fill="currentColor"/>
<path fill-rule="evenodd" clip-rule="evenodd" d="M10 4.5C9.72386 4.5 9.5 4.27614 9.5 4V1C9.5 0.723858 9.72386 0.5 10 0.5C10.2761 0.5 10.5 0.723858 10.5 1V4C10.5 4.27614 10.2761 4.5 10 4.5Z" fill="currentColor"/>
<path fill-rule="evenodd" clip-rule="evenodd" d="M6.97427 12.1631C7.7992 11.7945 8.42864 11.1719 8.71654 10.3196C8.77271 10.3283 8.83027 10.3329 8.88889 10.3329C9.50254 10.3329 10 9.83543 10 9.22178C10 8.60813 9.50254 8.11067 8.88889 8.11067C8.83533 8.11067 8.78267 8.11446 8.73114 8.12179C8.25662 6.50969 6.76574 5.33289 5 5.33289C3.23426 5.33289 1.74338 6.50969 1.26886 8.12178C1.21733 8.11446 1.16466 8.11067 1.11111 8.11067C0.497461 8.11067 0 8.60813 0 9.22178C0 9.83543 0.497461 10.3329 1.11111 10.3329C1.16973 10.3329 1.22729 10.3284 1.28346 10.3196C1.57136 11.1719 2.2008 11.7945 3.02573 12.1631C2.52898 13.1792 2.22222 14.4186 2.22222 15.3329C2.22222 17.0244 3.27217 17.0146 4.63267 17.0018H4.63273H4.63279H4.63285C4.75298 17.0007 4.87554 16.9996 5 16.9996C5.12446 16.9996 5.24702 17.0007 5.36715 17.0018H5.36721H5.36727H5.36733C6.72783 17.0146 7.77778 17.0244 7.77778 15.3329C7.77778 14.4186 7.47102 13.1792 6.97427 12.1631ZM3.88889 6.16622C3.98176 6.16622 4.0685 6.21263 4.12001 6.28991L4.96561 7.55831L5.3071 6.87532C5.34703 6.79546 5.42292 6.73966 5.51106 6.72536C5.5992 6.71106 5.68884 6.73999 5.75197 6.80313L6.59057 7.64173L6.97377 6.87532C7.04238 6.73811 7.20923 6.68249 7.34645 6.7511C7.48366 6.81971 7.53928 6.98656 7.47067 7.12378L6.91512 8.23489C6.87519 8.31475 6.7993 8.37055 6.71116 8.38485C6.62302 8.39915 6.53338 8.37022 6.47025 8.30708L5.63165 7.46848L5.24845 8.23489C5.20417 8.32345 5.11609 8.38175 5.01726 8.3879C4.91843 8.39405 4.8238 8.34713 4.76887 8.26474L3.88889 6.94477L3.0089 8.26474C2.9238 8.39239 2.75134 8.42688 2.62369 8.34179C2.49605 8.25669 2.46155 8.08422 2.54665 7.95658L3.65776 6.28991C3.70928 6.21263 3.79601 6.16622 3.88889 6.16622ZM4.44444 9.77733C4.44444 10.0842 4.19571 10.3329 3.88889 10.3329C3.58206 10.3329 3.33333 10.0842 3.33333 9.77733C3.33333 9.4705 3.58206 9.22177 3.88889 9.22177C4.19571 9.22177 4.44444 9.4705 4.44444 9.77733ZM7.77778 9.77733C7.77778 10.0842 7.52905 10.3329 7.22222 10.3329C6.9154 10.3329 6.66667 10.0842 6.66667 9.77733C6.66667 9.4705 6.9154 9.22177 7.22222 9.22177C7.52905 9.22177 7.77778 9.4705 7.77778 9.77733ZM5.55556 11.444C4.94191 11.444 4.44444 11.1953 4.44444 10.8884H6.66667C6.66667 11.1953 6.1692 11.444 5.55556 11.444Z" fill="currentColor"/>
<path fill-rule="evenodd" clip-rule="evenodd" d="M17.7722 3.58766C17.7358 3.3326 17.5287 3.13606 17.2721 3.11292C17.0155 3.08978 16.7767 3.24612 16.6952 3.49055L16.1111 5.24275L15.527 3.49055C15.445 3.24439 15.2035 3.08782 14.9453 3.11338C14.687 3.13895 14.4809 3.33985 14.4487 3.59733L14.166 5.85936C12.5438 6.90201 12.2222 9.24962 12.2222 10.6504C12.2222 11.8797 12.839 12.3165 13.9949 12.4711C13.5823 13.4216 13.3333 14.5092 13.3333 15.3329C13.3333 17.0244 14.3833 17.0146 15.7438 17.0018H15.7438H15.7439C15.8641 17.0007 15.9866 16.9996 16.1111 16.9996C16.2356 16.9996 16.3582 17.0007 16.4783 17.0018H16.4784H16.4784C17.8389 17.0146 18.8889 17.0244 18.8889 15.3329C18.8889 14.5092 18.6399 13.4216 18.2273 12.4711C19.3832 12.3165 20 11.8797 20 10.6504C20 9.34636 19.4425 7.22177 18.1301 6.09332L17.7722 3.58766ZM17.2222 10.3329C17.529 10.3329 17.7778 10.0842 17.7778 9.77734C17.7778 9.47052 17.529 9.22179 17.2222 9.22179C16.9154 9.22179 16.6667 9.47052 16.6667 9.77734C16.6667 10.0842 16.9154 10.3329 17.2222 10.3329ZM13.8889 10.3329C14.1957 10.3329 14.4444 10.0842 14.4444 9.77734C14.4444 9.47052 14.1957 9.22179 13.8889 9.22179C13.5821 9.22179 13.3333 9.47052 13.3333 9.77734C13.3333 10.0842 13.5821 10.3329 13.8889 10.3329ZM14.5095 10.6202C14.5963 10.5334 14.737 10.5334 14.8238 10.6202C14.8854 10.6818 15.0036 10.7808 15.145 10.863C15.2896 10.947 15.4345 10.9996 15.5556 10.9996C15.6766 10.9996 15.8215 10.947 15.9661 10.863C16.1075 10.7808 16.2257 10.6818 16.2873 10.6202C16.3741 10.5334 16.5148 10.5334 16.6016 10.6202C16.6884 10.707 16.6884 10.8477 16.6016 10.9345C16.515 11.021 16.3666 11.1442 16.1895 11.2472C16.0155 11.3484 15.79 11.444 15.5556 11.444C15.3211 11.444 15.0956 11.3484 14.9216 11.2472C14.7445 11.1442 14.5961 11.021 14.5095 10.9345C14.4227 10.8477 14.4227 10.707 14.5095 10.6202Z" fill="currentColor"/>
</svg>
