<svg width="28" height="28" viewBox="0 0 28 28" fill="none" xmlns="http://www.w3.org/2000/svg">
<path fill-rule="evenodd" clip-rule="evenodd" d="M10 4H6C5.44772 4 5 4.44772 5 5V9C5 9.55228 5.44772 10 6 10H10C10.5523 10 11 9.55228 11 9V5C11 4.44772 10.5523 4 10 4ZM6 2C4.34315 2 3 3.34315 3 5V9C3 10.6569 4.34315 12 6 12H10C11.6569 12 13 10.6569 13 9V5C13 3.34315 11.6569 2 10 2H6Z" fill="#444444"/>
<path fill-rule="evenodd" clip-rule="evenodd" d="M10 16H6C5.44772 16 5 16.4477 5 17V21C5 21.5523 5.44772 22 6 22H10C10.5523 22 11 21.5523 11 21V17C11 16.4477 10.5523 16 10 16ZM6 14C4.34315 14 3 15.3431 3 17V21C3 22.6569 4.34315 24 6 24H10C11.6569 24 13 22.6569 13 21V17C13 15.3431 11.6569 14 10 14H6Z" fill="#444444"/>
<path fill-rule="evenodd" clip-rule="evenodd" d="M22 4H18C17.4477 4 17 4.44772 17 5V9C17 9.55228 17.4477 10 18 10H22C22.5523 10 23 9.55228 23 9V5C23 4.44772 22.5523 4 22 4ZM18 2C16.3431 2 15 3.34315 15 5V9C15 10.6569 16.3431 12 18 12H22C23.6569 12 25 10.6569 25 9V5C25 3.34315 23.6569 2 22 2H18Z" fill="#444444"/>
<path fill-rule="evenodd" clip-rule="evenodd" d="M22 16H18C17.4477 16 17 16.4477 17 17V21C17 21.5523 17.4477 22 18 22H22C22.5523 22 23 21.5523 23 21V17C23 16.4477 22.5523 16 22 16ZM18 14C16.3431 14 15 15.3431 15 17V21C15 22.6569 16.3431 24 18 24H22C23.6569 24 25 22.6569 25 21V17C25 15.3431 23.6569 14 22 14H18Z" fill="#444444"/>
</svg>
