<svg width="20" height="20" viewBox="0 0 20 20" fill="none" xmlns="http://www.w3.org/2000/svg">
<g clip-path="url(#clip0_226:307)">
<path d="M14.4623 13.0772C13.0601 17.2453 9.94798 19.8048 6.88404 18.7704C3.82011 17.736 3.35154 13.9677 4.75377 9.79949C5.61425 7.24168 6.93617 8.47335 10.0001 9.50775C13.064 10.5422 15.2413 10.7615 14.4623 13.0772Z" fill="currentColor"/>
<path fill-rule="evenodd" clip-rule="evenodd" d="M8.68429 1.3915C8.74279 1.10343 9.04008 0.931915 9.31816 1.0258L15.6678 3.16946C15.9458 3.26334 16.0789 3.58013 15.9514 3.84491L14.6228 6.60427C14.5379 6.78072 14.3559 6.8893 14.1606 6.88015L11.9486 6.77646L10.6131 10.7462L8.76388 10.1219L10.0993 6.15215L8.27588 4.89343C8.11486 4.78228 8.03565 4.58554 8.07463 4.39357L8.68429 1.3915ZM9.17461 3.14013C9.21452 2.83483 9.52288 2.64211 9.81415 2.74044L14.2369 4.23361C14.5282 4.33194 14.6572 4.67233 14.5045 4.93954L14.0179 5.79112C13.9222 5.95853 13.7372 6.0539 13.5456 6.03458L11.3575 5.81388C11.2845 5.80652 11.214 5.78274 11.1514 5.74432L9.27628 4.59322C9.1121 4.49243 9.02245 4.30432 9.04745 4.11306L9.17461 3.14013Z" fill="currentColor"/>
</g>
<defs>
<clipPath id="clip0_226:307">
<rect width="20" height="20" fill="white"/>
</clipPath>
</defs>
</svg>
