<svg width="40" height="40" viewBox="0 0 40 40" fill="none" xmlns="http://www.w3.org/2000/svg">
<rect width="40" height="40" rx="20" fill="white"/>
<path d="M23.1348 28.5785C23.1209 28.6048 23.1019 28.6282 23.0789 28.6471C23.0559 28.6661 23.0294 28.6804 23.0009 28.6892C22.8064 28.7665 22.594 28.7657 22.3976 28.8358C22.3457 28.8545 22.276 28.8211 22.2222 28.8358C21.9827 28.9073 21.7298 28.8625 21.4893 28.9321C21.3887 28.9451 21.287 28.9483 21.1858 28.9416C19.989 29.0352 18.7902 28.991 17.5928 28.9795C17.299 28.9824 17.0052 28.9664 16.7134 28.9315C16.5421 28.9289 16.3713 28.9126 16.2026 28.8827C15.9958 28.8163 15.7842 28.8654 15.5793 28.8028C15.4593 28.766 15.3234 28.7705 15.1957 28.7425C14.9854 28.6961 14.7727 28.6625 14.5648 28.6031C14.3925 28.5544 14.2172 28.5168 14.0401 28.4903C13.8622 28.462 13.6945 28.3975 13.5177 28.3642C13.2766 28.3194 13.0511 28.2202 12.8081 28.1749C12.6144 28.1269 12.4232 28.0691 12.2354 28.0016C11.9753 27.9249 11.7142 27.8518 11.4535 27.7769C11.3324 27.7438 11.2132 27.7045 11.0962 27.6591C10.7404 27.5429 10.3946 27.3981 10.0625 27.2261C10.0041 27.1904 9.99121 27.1555 10.0051 27.1069C10.0587 26.9155 10.1123 26.7228 10.1811 26.5359C10.2714 26.2901 10.3716 26.0477 10.4758 25.807C10.5749 25.5764 10.6968 25.3538 10.7844 25.1197C10.8612 24.9455 10.9239 24.7654 10.9719 24.5812C10.9915 24.4968 11.0202 24.4147 11.0576 24.3365C11.1142 24.2038 11.1547 24.0649 11.1784 23.9227C11.2057 23.7967 11.2421 23.6729 11.2874 23.5521C11.3694 23.3122 11.4058 23.0597 11.4795 22.8182C11.5374 22.6284 11.577 22.4324 11.6169 22.2416C11.668 22.0501 11.7089 21.8561 11.7393 21.6604C11.763 21.4834 11.7999 21.3085 11.8497 21.1371C11.8908 20.9976 11.9196 20.8549 11.936 20.7105C11.9501 20.6174 11.971 20.5255 11.9984 20.4354C12.021 20.2286 12.063 20.0244 12.1237 19.8254C12.1591 19.7237 12.1794 19.6173 12.184 19.5097C12.2047 19.3196 12.2418 19.1316 12.2946 18.9478C12.3787 18.6417 12.4554 18.3325 12.532 18.0256C12.6233 17.6577 12.7548 17.3042 12.862 16.9427C12.9014 16.8094 12.9812 16.6798 13.0275 16.5447C13.1135 16.2949 13.2608 16.076 13.3645 15.8355C13.4166 15.7312 13.4783 15.6319 13.5488 15.5388C13.7998 15.198 14.0804 14.8797 14.3872 14.5876C14.6611 14.3328 14.952 14.0968 15.2581 13.8814C15.4355 13.7645 15.6189 13.6568 15.8075 13.5588C15.9755 13.4523 16.1519 13.3595 16.3349 13.2813C16.6014 13.1458 16.8792 13.0338 17.1653 12.9467C17.3433 12.9032 17.5178 12.8468 17.6874 12.7779C17.7785 12.7483 17.8715 12.7246 17.9657 12.707C18.1702 12.6583 18.3771 12.6202 18.5856 12.5929C18.9542 12.5362 19.3264 12.5051 19.6994 12.4999C19.968 12.5073 20.2354 12.5387 20.4984 12.5937C20.8079 12.6448 21.1137 12.7155 21.414 12.8054C21.744 12.9077 22.0684 13.0271 22.3859 13.1632C22.6786 13.3028 22.9639 13.4573 23.2406 13.6262C23.351 13.6772 23.449 13.7512 23.5281 13.8433C23.5745 13.8967 23.6314 13.9403 23.6952 13.9712C23.7935 14.028 23.8428 14.1386 23.9167 14.2202C24.1107 14.4348 24.3405 14.6144 24.5958 14.7513C24.6275 14.7728 24.6665 14.781 24.7043 14.7742C24.7421 14.7674 24.7757 14.746 24.7978 14.7148C24.9093 14.5794 24.9985 14.4273 25.0622 14.2642C25.1961 13.9507 25.3383 13.6396 25.4449 13.3154C25.5039 13.1368 25.5789 12.9653 25.6311 12.7822C25.708 12.5047 25.8173 12.2325 25.9025 11.9558C25.9759 11.7174 26.0254 11.4719 26.09 11.2306C26.1585 10.9864 26.1971 10.7349 26.2049 10.4815C26.2095 10.3858 26.2346 10.2922 26.2786 10.2069C26.2933 10.1639 26.3175 10.1248 26.3493 10.0923C26.3812 10.0598 26.4199 10.0347 26.4627 10.019C26.5055 10.0032 26.5513 9.99717 26.5967 10.0012C26.6421 10.0053 26.6861 10.0193 26.7254 10.0424C26.9507 10.1332 27.1683 10.2419 27.376 10.3676C27.54 10.4665 27.6927 10.5844 27.8467 10.6988C28.0053 10.8169 28.1555 10.9459 28.2962 11.0848C28.3789 11.1664 28.3977 11.2666 28.3109 11.3356C28.1108 11.4956 27.9294 11.674 27.7272 11.8305C27.6231 11.9267 27.5276 12.0317 27.4417 12.1442C27.2633 12.3394 27.1218 12.5625 26.9595 12.7689C26.7511 13.0484 26.5615 13.3413 26.3919 13.6457C26.2392 13.8965 26.1164 14.1641 26.0257 14.4431C25.9287 14.7023 25.8875 14.9788 25.9049 15.2549C25.905 15.3401 25.9313 15.4232 25.9802 15.4932C26.0292 15.5631 26.0984 15.6165 26.1786 15.6462C26.4618 15.7794 26.7319 15.9385 26.9855 16.1216C27.1127 16.2016 27.2424 16.2775 27.3669 16.3615C27.455 16.4207 27.5384 16.4879 27.6206 16.5556C27.6676 16.6037 27.7243 16.6415 27.7869 16.6662C27.882 16.6929 27.9083 16.8014 27.9828 16.8481C28.1027 16.9386 28.2158 17.0378 28.3211 17.1448C28.4989 17.3045 28.6604 17.4813 28.8032 17.6726C28.9048 17.7995 28.964 17.963 29.0647 18.0968C29.417 18.669 29.6789 19.2917 29.8415 19.943C29.8809 20.1381 29.898 20.3381 29.9425 20.5295C30.0053 20.9106 30.0167 21.2984 29.9765 21.6825C29.9738 21.8729 29.9483 22.0622 29.9007 22.2466C29.8514 22.4204 29.834 22.6047 29.789 22.7825C29.728 23.0326 29.6537 23.2792 29.5664 23.5215C29.441 23.8593 29.2918 24.1864 29.1408 24.5138C29.0098 24.7616 28.8649 25.0019 28.7068 25.2336C28.6015 25.4074 28.4687 25.5596 28.3521 25.7244C28.3106 25.7775 28.2647 25.8271 28.2147 25.8726C28.0444 26.0448 27.8745 26.2173 27.7015 26.3869C27.5796 26.4814 27.4431 26.5556 27.2973 26.6065C27.229 26.6399 27.1556 26.5735 27.1593 26.4868C27.1459 26.3314 27.1602 26.1748 27.2014 26.0243C27.2188 25.9462 27.2227 25.8656 27.2129 25.7862C27.2148 25.6097 27.2766 25.4396 27.2665 25.2608C27.2434 24.6897 27.0777 24.1333 26.7843 23.642C26.7207 23.536 26.643 23.439 26.5534 23.3535C26.4915 23.2957 26.4406 23.1874 26.3702 23.112C26.2222 22.9796 26.0663 22.8562 25.9033 22.7425C25.7464 22.6194 25.5725 22.5192 25.3871 22.4452C25.2399 22.3883 25.0894 22.3399 24.9365 22.3005C24.6883 22.2266 24.4302 22.191 24.1712 22.1952C23.8853 22.1887 23.5994 22.2103 23.3178 22.2597C23.2778 22.2727 23.2391 22.2892 23.2021 22.309C22.9808 22.3956 22.7518 22.4671 22.5402 22.5729C22.4067 22.6316 22.2886 22.72 22.1949 22.8313C22.1512 22.8747 22.1009 22.9112 22.0459 22.9392C21.7766 23.1428 21.5296 23.374 21.309 23.6292C21.0207 23.9258 20.7932 24.2755 20.6393 24.6588C20.5623 24.8398 20.5218 25.0341 20.5199 25.2306C20.498 25.6039 20.5159 25.9784 20.5734 26.3479C20.6454 26.6181 20.7519 26.8779 20.8903 27.1211C20.9904 27.3109 21.1301 27.4772 21.2999 27.6089C21.502 27.7889 21.7272 27.9413 21.9696 28.0621C22.1416 28.1347 22.3082 28.2373 22.4831 28.3074C22.6484 28.4061 22.8297 28.4753 23.0188 28.5119C23.055 28.5156 23.0938 28.5554 23.1348 28.5785Z" fill="#80B996"/>
</svg>
