<svg width="18" height="18" viewBox="0 0 20 20" xmlns="http://www.w3.org/2000/svg">
<path fill-rule="evenodd" clip-rule="evenodd" d="M15.474 6.96192C15.6599 6.79338 15.8247 6.5916 15.9586 6.35964C16.5914 5.26355 16.2967 3.90863 15.3002 3.33333C14.3038 2.75804 12.983 3.18022 12.3502 4.27631C12.2162 4.50827 12.1239 4.75182 12.0709 4.99713L10.597 4.14619C9.16213 3.31776 7.32736 3.80938 6.49893 5.24426L5.36004 7.21688L16.907 13.8835L18.0459 11.9109C18.8744 10.4761 18.3827 8.64128 16.9479 7.81286L15.474 6.96192ZM1 11.4354C1.88429 11.1627 3.48505 10.1947 4.93268 7.93239L16.4837 14.6014C14.4477 17.8918 12.8904 18.0999 12.547 18.102L6.74857 14.7543L8 11C7.01 12.2062 5.36127 12.8104 4.16995 13.247L4.15035 13.2542L1 11.4354Z" fill="black" fill-opacity="0.2"/>
</svg>
