<svg width="28" height="28" viewBox="0 0 28 28" fill="none" xmlns="http://www.w3.org/2000/svg">
<path fill-rule="evenodd" clip-rule="evenodd" d="M20 11.5C20 15.6421 16.6421 19 12.5 19C8.35786 19 5 15.6421 5 11.5C5 7.35786 8.35786 4 12.5 4C16.6421 4 20 7.35786 20 11.5ZM18.5154 18.8532C16.8773 20.1949 14.7827 21 12.5 21C7.25329 21 3 16.7467 3 11.5C3 6.25329 7.25329 2 12.5 2C17.7467 2 22 6.25329 22 11.5C22 13.7827 21.1949 15.8773 19.8532 17.5154C19.9501 17.5627 20.0408 17.6266 20.1213 17.7071L25.2618 22.8476C25.6523 23.2381 25.6523 23.8713 25.2618 24.2618C24.8713 24.6523 24.2381 24.6523 23.8476 24.2618L18.7071 19.1213C18.6266 19.0408 18.5627 18.9501 18.5154 18.8532Z" fill="#808080"/>
</svg>
