<svg width="28" height="28" viewBox="0 0 28 28" fill="none" xmlns="http://www.w3.org/2000/svg">
<path fill-rule="evenodd" clip-rule="evenodd" d="M19 7H9C8.44772 7 8 7.44772 8 8V18C8 18.5523 8.44772 19 9 19H19C19.5523 19 20 18.5523 20 18V8C20 7.44772 19.5523 7 19 7ZM9 5C7.34315 5 6 6.34315 6 8V18C6 19.6569 7.34315 21 9 21H19C20.6569 21 22 19.6569 22 18V8C22 6.34315 20.6569 5 19 5H9Z" fill="#444444"/>
<path d="M12 13C12 13.5523 11.5523 14 11 14C10.4477 14 10 13.5523 10 13C10 12.4477 10.4477 12 11 12C11.5523 12 12 12.4477 12 13Z" fill="#444444"/>
<path d="M15 13C15 13.5523 14.5523 14 14 14C13.4477 14 13 13.5523 13 13C13 12.4477 13.4477 12 14 12C14.5523 12 15 12.4477 15 13Z" fill="#444444"/>
<path d="M18 13C18 13.5523 17.5523 14 17 14C16.4477 14 16 13.5523 16 13C16 12.4477 16.4477 12 17 12C17.5523 12 18 12.4477 18 13Z" fill="#444444"/>
</svg>
