<?xml version="1.0" standalone="no"?>
<!DOCTYPE svg PUBLIC "-//W3C//DTD SVG 20010904//EN"
 "http://www.w3.org/TR/2001/REC-SVG-20010904/DTD/svg10.dtd">
<svg version="1.0" xmlns="http://www.w3.org/2000/svg"
 width="260.000000pt" height="260.000000pt" viewBox="0 0 260.000000 260.000000"
 preserveAspectRatio="xMidYMid meet">
<metadata>
Created by potrace 1.11, written by Peter Selinger 2001-2013
</metadata>
<g transform="translate(0.000000,260.000000) scale(0.100000,-0.100000)"
fill="#000000" stroke="none">
<path d="M1250 2158 c-76 -58 -76 -58 -147 -38 -35 11 -71 16 -79 13 -8 -3
-25 -26 -38 -52 -35 -67 -55 -82 -125 -88 -34 -3 -66 -11 -71 -18 -6 -7 -13
-37 -17 -66 -7 -70 -23 -94 -83 -124 -59 -30 -69 -55 -46 -122 23 -66 21 -75
-24 -129 -22 -27 -40 -58 -40 -70 0 -12 18 -44 41 -70 43 -52 44 -58 19 -145
-7 -25 -11 -53 -7 -62 3 -9 31 -31 62 -48 61 -34 75 -57 75 -119 0 -58 24 -80
95 -89 74 -8 80 -12 106 -64 12 -23 29 -51 38 -62 15 -19 15 -19 -2 -6 -10 8
-27 31 -37 50 l-18 36 -11 -25 c-5 -14 -23 -56 -39 -95 -16 -38 -42 -105 -58
-147 -17 -48 -35 -78 -45 -81 -15 -4 -14 4 8 62 28 71 101 274 110 304 5 15 1
18 -17 15 -23 -3 -37 -34 -130 -277 -43 -110 -47 -136 -27 -144 6 -2 64 11
127 29 63 19 118 34 121 34 4 0 38 -49 77 -110 39 -60 78 -110 86 -110 13 0
69 129 127 293 7 20 16 37 20 37 3 0 21 -39 39 -88 88 -234 92 -242 109 -242
10 0 42 41 85 110 37 60 71 110 75 110 4 0 61 -16 126 -35 65 -19 122 -32 126
-29 19 11 6 57 -64 235 -61 153 -77 185 -95 187 -12 2 -22 1 -22 -1 0 -3 12
-36 26 -73 14 -38 32 -87 39 -109 7 -22 27 -77 44 -123 26 -71 28 -81 12 -73
-10 6 -32 48 -51 98 -18 48 -43 111 -55 138 -12 28 -26 61 -30 75 -4 14 -12
28 -16 31 -5 3 -3 14 5 24 9 13 33 21 82 27 76 9 94 22 94 72 0 70 18 105 69
130 63 32 75 48 67 88 -22 112 -20 124 17 170 52 63 52 78 1 139 -34 41 -36
46 -29 94 17 123 16 126 -45 160 -61 34 -80 62 -80 120 0 63 -19 81 -92 89
-70 7 -80 14 -117 83 -30 56 -52 62 -132 39 -58 -17 -71 -13 -129 39 -42 38
-62 39 -110 3z m194 -108 c43 -11 105 -34 139 -52 74 -39 183 -140 228 -209
33 -53 79 -168 78 -197 0 -9 -8 8 -18 38 -92 290 -365 465 -653 421 -101 -16
-164 -40 -250 -97 -101 -68 -178 -165 -225 -288 -13 -34 -21 -47 -18 -31 14
73 78 179 155 256 153 153 360 211 564 159z m-19 -65 c203 -52 358 -211 400
-412 18 -86 18 -130 0 -218 -34 -158 -139 -296 -282 -368 -93 -46 -166 -60
-273 -55 -105 6 -182 33 -274 95 -146 100 -226 253 -226 433 0 162 43 266 159
380 140 139 317 190 496 145z m-708 -417 c-3 -7 -5 -2 -5 12 0 14 2 19 5 13 2
-7 2 -19 0 -25z m1180 -60 c-2 -13 -4 -3 -4 22 0 25 2 35 4 23 2 -13 2 -33 0
-45z m-1158 -230 c39 -123 140 -251 249 -315 55 -32 55 -41 0 -11 -63 34 -170
145 -211 220 -50 87 -77 200 -75 302 l1 81 7 -105 c5 -59 17 -134 29 -172z
m1158 103 c-6 -55 -44 -177 -53 -169 -2 2 5 28 16 57 11 29 23 79 27 112 3 32
8 59 11 59 3 0 2 -27 -1 -59z m-78 -223 c-24 -47 -149 -178 -189 -197 -21 -10
-20 -8 5 11 67 51 128 115 162 170 42 68 52 76 22 16z m-219 -213 c0 -7 -51
-31 -80 -39 -14 -3 -2 5 25 18 59 29 55 27 55 21z m-520 -30 c14 -8 21 -14 15
-14 -5 0 -21 6 -35 14 -14 8 -20 14 -15 14 6 0 21 -6 35 -14z m80 -25 c20 -6
21 -8 5 -8 -11 0 -29 3 -40 8 -25 11 1 11 35 0z m63 -17 c-7 -2 -19 -2 -25 0
-7 3 -2 5 12 5 14 0 19 -2 13 -5z m402 -33 c-9 -16 -18 -30 -21 -30 -2 0 2 14
11 30 9 17 18 30 21 30 2 0 -2 -13 -11 -30z m-458 -26 c-3 -3 -12 -4 -19 -1
-8 3 -5 6 6 6 11 1 17 -2 13 -5z m290 0 c-3 -3 -12 -4 -19 -1 -8 3 -5 6 6 6
11 1 17 -2 13 -5z m-400 -30 c-3 -3 -12 -4 -19 -1 -8 3 -5 6 6 6 11 1 17 -2
13 -5z m215 -53 c-6 -3 -36 -74 -67 -156 -65 -172 -64 -170 -77 -157 -5 5 15
73 53 175 58 155 63 165 82 156 12 -7 16 -14 9 -18z m147 -136 c43 -114 60
-169 53 -180 -6 -12 -26 31 -75 157 -61 158 -67 185 -41 188 1 0 29 -74 63
-165z"/>
<path d="M1507 1750 c-15 -49 -32 -90 -38 -90 -6 0 -26 13 -45 29 -86 76 -239
67 -337 -20 -54 -47 -67 -77 -102 -239 -15 -69 -38 -151 -52 -184 -13 -32 -21
-62 -16 -66 17 -16 150 -51 237 -62 62 -8 118 -8 176 -2 l85 9 -41 22 c-75 40
-83 121 -19 183 46 44 116 53 159 19 36 -29 55 -75 48 -119 -5 -34 -5 -34 18
-19 41 27 82 113 87 182 6 84 -30 158 -99 202 -35 23 -47 36 -47 56 -1 28 51
114 74 123 24 9 18 25 -17 46 -18 11 -35 20 -38 20 -3 0 -18 -40 -33 -90z"/>
</g>
</svg>
