<?xml version="1.0" standalone="no"?>
<!DOCTYPE svg PUBLIC "-//W3C//DTD SVG 20010904//EN"
 "http://www.w3.org/TR/2001/REC-SVG-20010904/DTD/svg10.dtd">
<svg version="1.0" xmlns="http://www.w3.org/2000/svg"
 width="96.000000pt" height="96.000000pt" viewBox="0 0 96.000000 96.000000"
 preserveAspectRatio="xMidYMid meet">
<metadata>
Created by potrace 1.11, written by Peter Selinger 2001-2013
</metadata>
<g transform="translate(0.000000,96.000000) scale(0.100000,-0.100000)"
fill="#000000" stroke="none">
<path d="M262 858 c-6 -6 -12 -17 -12 -23 0 -6 -10 -11 -22 -12 -12 -1 -31
-11 -42 -23 -20 -20 -21 -31 -22 -328 0 -169 4 -319 9 -335 5 -15 17 -32 27
-37 11 -6 120 -10 254 -10 229 0 236 1 256 22 25 27 22 13 24 138 2 109 7 130
31 130 23 0 32 31 30 105 -3 104 -3 103 -32 112 -27 9 -27 11 -29 97 -1 127
-5 130 -176 131 -124 0 -133 1 -138 20 -5 17 -16 20 -76 23 -45 2 -74 -2 -82
-10z m430 -76 c7 -7 12 -48 13 -97 l1 -85 -28 0 c-21 0 -34 -9 -54 -40 -24
-36 -26 -43 -14 -65 22 -42 51 -67 71 -62 10 3 19 0 22 -7 8 -25 -1 -157 -13
-171 -10 -12 -56 -15 -251 -17 -153 -2 -240 1 -242 7 -7 21 -1 521 6 533 5 6
18 12 30 12 19 0 22 -5 22 -41 0 -51 23 -71 56 -51 17 11 27 11 50 2 45 -19
59 -8 59 47 l0 48 131 -1 c82 -1 134 -5 141 -12z m69 -219 c6 -32 4 -71 -3
-85 -12 -25 -83 -16 -107 14 -19 22 -19 23 1 50 16 23 27 28 64 28 24 0 45 -3
45 -7z m4 -144 c-4 -5 -13 -9 -22 -9 -13 0 -13 3 -3 15 13 15 35 11 25 -6z
m-75 -224 c-10 -13 -47 -15 -225 -15 -184 0 -212 -2 -212 -15 0 -14 28 -15
224 -13 123 2 223 1 223 -2 0 -4 -5 -11 -12 -18 -17 -17 -459 -17 -476 0 -16
16 -15 53 1 67 9 7 96 12 248 13 129 2 236 2 238 1 2 -2 -2 -9 -9 -18z"/>
<path d="M355 606 c-14 -21 -14 -28 -2 -58 16 -38 41 -62 79 -77 22 -8 32 -6
66 19 22 15 44 42 50 58 20 59 -30 103 -79 68 -19 -13 -24 -13 -36 0 -22 22
-60 17 -78 -10z"/>
<path d="M330 405 c0 -12 20 -15 120 -15 100 0 120 3 120 15 0 13 -20 15 -120
15 -100 0 -120 -2 -120 -15z"/>
<path d="M330 345 c0 -12 15 -15 75 -15 60 0 75 3 75 15 0 12 -15 15 -75 15
-60 0 -75 -3 -75 -15z"/>
<path d="M677 526 c-8 -19 15 -37 32 -26 17 10 7 40 -13 40 -7 0 -16 -6 -19
-14z"/>
</g>
</svg>
