<svg width="20" height="20" viewBox="0 0 20 20" fill="none" xmlns="http://www.w3.org/2000/svg">
<path fill-rule="evenodd" clip-rule="evenodd" d="M11.7849 5.08309C11.8673 4.88108 11.988 4.66968 12.125 4.45242C12.5841 3.72415 13.3023 3.98856 14.0381 4.45243C14.2868 4.70114 14.4942 5.01321 14.048 5.73029C15.0788 6.19421 15.9424 6.85423 16.5521 7.64381C17.2289 8.26898 18.1165 9.08164 19.1568 8.77966C19.3652 8.71916 19.406 10.1159 18.8565 10.9876C18.5226 11.5173 17.4718 12.6152 16.4773 13.2556C16.3439 13.4206 16.1993 13.5796 16.0442 13.7321C17.6908 14.7826 17.8806 15.1615 17.3512 16.0013C16.9158 16.6919 14.4176 16.4449 12.6376 15.5575C11.9642 15.7224 11.2468 15.8114 10.5023 15.8114C9.40451 15.8114 8.36549 15.6179 7.43972 15.2728C6.81343 15.7342 6.0707 16.1757 5.36464 16.5301C3.49574 17.4682 2.59156 17.4407 2.1345 16.5301C1.67743 15.6196 1.60162 15.1268 3.47052 14.1887C3.87499 13.9857 4.33739 13.7784 4.81835 13.5875C4.1193 12.8507 3.65654 11.9727 3.5158 11.0196C2.98811 10.9926 2.44576 10.8278 1.94979 10.5151C0.559255 9.63852 0.725973 4.46467 2.25068 4.46466C4.55694 4.46466 4.12157 6.09729 3.72587 7.5811L3.72587 7.5811C3.51329 8.37827 3.31216 9.13248 3.55378 9.56749C4.07563 6.97657 6.98787 4.99333 10.5023 4.99333C10.9403 4.99333 11.369 5.02414 11.7849 5.08309ZM16.9932 8.23876C17.3122 9.07624 17.3071 9.87059 15.9113 10.4024C14.5156 10.9342 13.5259 10.6989 13.2068 9.86147C12.8877 9.02399 12.8928 8.22965 14.2886 7.69785C15.6844 7.16606 16.6741 7.40128 16.9932 8.23876ZM15.5319 9.44784C15.8292 9.44784 16.0702 9.20688 16.0702 8.90963C16.0702 8.61237 15.8292 8.37141 15.5319 8.37141C15.2347 8.37141 14.9937 8.61237 14.9937 8.90963C14.9937 9.20688 15.2347 9.44784 15.5319 9.44784Z" fill="currentColor"/>
</svg>
