<svg width="20" height="20" viewBox="0 0 20 20" fill="none" xmlns="http://www.w3.org/2000/svg">
<path fill-rule="evenodd" clip-rule="evenodd" d="M5.10348 2.73463C5.16898 2.81708 5.22892 2.89252 5.28043 2.95509C5.1076 2.95841 4.93845 2.9663 4.77404 2.9784C3.73521 1.99633 2.2627 1.85233 1.44742 2.66762C0.614092 3.50094 0.782977 5.02091 1.82463 6.06256C2.30842 6.54635 2.89539 6.84188 3.46882 6.93618C2.86233 7.68554 2.64616 8.48449 2.99476 8.83309C3.39693 9.23526 4.39849 8.88574 5.23181 8.05242C5.35572 7.92851 5.46892 7.80089 5.57055 7.67207C5.67219 7.80089 5.78539 7.92851 5.90929 8.05241C6.74262 8.88574 7.74418 9.23526 8.14635 8.83309C8.49523 8.48421 8.27843 7.68426 7.67084 6.93438C8.24084 6.83817 8.82348 6.54332 9.30424 6.06256C10.3459 5.02091 10.5148 3.50094 9.68146 2.66761C8.86206 1.84821 7.37876 1.99781 6.33911 2.99335C6.11951 2.97268 5.89032 2.95962 5.65428 2.95509C5.7058 2.89251 5.76575 2.81704 5.83127 2.73457C6.16693 2.31209 6.6486 1.70582 6.88992 1.70582C7.28276 1.70582 7.60121 1.54782 7.60121 1.35291C7.60121 1.158 7.24557 1 6.88992 1C5.97805 1.30162 5.58575 2.49203 5.49098 2.95333C5.48311 2.95331 5.47523 2.9533 5.46735 2.9533L5.44373 2.95333C5.34896 2.49203 4.95666 1.30162 4.04478 1C3.68914 1 3.33349 1.158 3.33349 1.35291C3.33349 1.54782 3.65195 1.70582 4.04478 1.70582C4.2861 1.70582 4.76777 2.31209 5.10343 2.73457L5.10348 2.73463Z" fill="currentColor"/>
<path fill-rule="evenodd" clip-rule="evenodd" d="M7 18C8.84704 18 10.4602 17.3991 11.3259 16.5053C11.4271 16.6555 11.5443 16.8053 11.6764 16.9504C12.83 17.9292 13.9216 17.801 14.3299 17.4292C14.65 17.1379 14.2038 16.6839 13.6379 16.108C13.4816 15.949 13.3162 15.7807 13.1553 15.6039C13.0432 15.4808 12.9268 15.368 12.8085 15.2666C12.9268 15.1651 13.0432 15.0524 13.1553 14.9292C13.3162 14.7525 13.4816 14.5842 13.6379 14.4251L13.6379 14.4251C14.2038 13.8493 14.6499 13.3953 14.3299 13.1039C13.9216 12.7321 12.83 12.6039 11.6764 13.5828C11.6289 13.635 11.5833 13.6878 11.5397 13.741C10.7465 12.7131 9.01202 12 7 12C4.23858 12 2 12.3431 2 14C2 16.5 4.23858 18 7 18ZM4.10949 14.1877C4.38564 14.1877 4.60949 13.9639 4.60949 13.6877C4.60949 13.4116 4.38564 13.1877 4.10949 13.1877C3.83335 13.1877 3.60949 13.4116 3.60949 13.6877C3.60949 13.9639 3.83335 14.1877 4.10949 14.1877Z" fill="currentColor"/>
<path fill-rule="evenodd" clip-rule="evenodd" d="M19 6C19 6.80494 18.7622 7.55434 18.3531 8.18182C18.7622 8.54038 19 8.96861 19 9.42857C19 10.843 18.5611 11.5573 17.8498 11.9179C17.8058 10.8304 17.57 10 17.2857 10C16.9752 10 16.7226 10.9904 16.7145 12.2245C16.3592 12.2664 15.975 12.2796 15.5714 12.2838C15.5712 11.0223 15.3154 10 15 10C14.6846 10 14.4288 11.0223 14.4286 12.2838C14.025 12.2796 13.6408 12.2664 13.2855 12.2245C13.2774 10.9904 13.0248 10 12.7143 10C12.43 10 12.1942 10.8304 12.1502 11.9179C11.4389 11.5573 11 10.843 11 9.42857C11 8.96861 11.2378 8.54038 11.6469 8.18182C11.2378 7.55434 11 6.80494 11 6C11 3.79086 12.7909 2 15 2C17.2091 2 19 3.79086 19 6ZM13.8571 8.85714C14.1727 8.85714 14.4286 8.6013 14.4286 8.28571C14.4286 7.97012 14.1727 7.71429 13.8571 7.71429C13.5415 7.71429 13.2857 7.97012 13.2857 8.28571C13.2857 8.6013 13.5415 8.85714 13.8571 8.85714ZM16.7143 8.28571C16.7143 8.6013 16.4584 8.85714 16.1429 8.85714C15.8273 8.85714 15.5714 8.6013 15.5714 8.28571C15.5714 7.97012 15.8273 7.71429 16.1429 7.71429C16.4584 7.71429 16.7143 7.97012 16.7143 8.28571Z" fill="currentColor"/>
</svg>
