<svg width="20" height="20" viewBox="0 0 20 20" fill="none" xmlns="http://www.w3.org/2000/svg">
<path fill-rule="evenodd" clip-rule="evenodd" d="M12.9872 2C12.8464 3.52603 11.5628 4.72095 10 4.72095C8.43724 4.72095 7.15356 3.52603 7.01281 2L1 5.80156L3.54583 9.72095L4.31341 9.23566C3.66607 12.2848 3.15428 15.6005 3.7931 16.321C5.03448 17.721 10 17.721 10 17.721C10 17.721 14.9655 17.721 16.2069 16.321C16.8457 15.6005 16.3339 12.2848 15.6866 9.23566L16.4542 9.72096L19 5.80157L12.9872 2Z" fill="currentColor"/>
<path d="M11 6.5C11 7.05228 10.5523 7.5 10 7.5C9.44772 7.5 9 7.05228 9 6.5C9 5.94772 9.44772 5.5 10 5.5C10.5523 5.5 11 5.94772 11 6.5Z" fill="white"/>
<path d="M11 9.5C11 10.0523 10.5523 10.5 10 10.5C9.44772 10.5 9 10.0523 9 9.5C9 8.94772 9.44772 8.5 10 8.5C10.5523 8.5 11 8.94772 11 9.5Z" fill="white"/>
</svg>
