<svg width="20" height="20" viewBox="0 0 20 20" fill="none" xmlns="http://www.w3.org/2000/svg">
<path fill-rule="evenodd" clip-rule="evenodd" d="M9 1H11V2.04001C13.2822 2.22532 15 3.03242 15 4C15.5523 4 16 4.44772 16 5C16 5.55228 15.5523 6 15 6V10H18C18.5523 10 19 10.4477 19 11V15C19 15.5523 18.5523 16 18 16C17.4477 16 17 15.5523 17 15V12H15V16.6305C16.0143 16.7534 16.0097 16.9807 16.0015 17.3831C16.0008 17.4205 16 17.4595 16 17.5C16 17.5949 16.0131 17.6877 16.0258 17.7776C16.1241 18.4734 16.1985 19 9.99999 19C3.94021 19 3.96438 18.4163 3.99544 17.666C3.9977 17.6115 3.99999 17.5561 3.99999 17.5C3.99999 17.4417 3.99751 17.3866 3.99518 17.3346C3.97801 16.9532 3.96832 16.738 5 16.622V12H2C1.44772 12 1 11.5523 1 11V7C1 6.44772 1.44772 6 2 6C2.55228 6 3 6.44772 3 7V10H5V6C4.44771 6 4 5.55228 4 5C4 4.44772 4.44772 4 5 4C5 3.03242 6.71776 2.22532 9 2.04001V1ZM7 7C7 6.44772 7.44772 6 8 6C8.55228 6 9 6.44772 9 7V8C9 9 8.55228 9 8 9C7.44772 9 7 9 7 8V7ZM11 7C11 6.44772 11.4477 6 12 6C12.5523 6 13 6.44772 13 7V8C13 9 12.5523 9 12 9C11.4477 9 11 9 11 8V7ZM11 12C11 12.5523 11 13 10 13C9 13 9 12.5523 9 12C9 11.4477 9 11 10 11C11 11 11 11.4477 11 12Z" fill="currentColor"/>
</svg>
