<svg width="20" height="20" viewBox="0 0 20 20" fill="none" xmlns="http://www.w3.org/2000/svg">
<path d="M12.5079 17.6451C12.4967 17.6672 12.4815 17.6869 12.4631 17.7029C12.4448 17.7188 12.4235 17.7309 12.4007 17.7383C12.2451 17.8034 12.0752 17.8027 11.9181 17.8617C11.8765 17.8774 11.8208 17.8494 11.7778 17.8617C11.5862 17.9219 11.3839 17.8842 11.1914 17.9428C11.111 17.9537 11.0296 17.9565 10.9486 17.9509C9.99116 18.0297 9.03219 17.9924 8.07428 17.9827C7.83918 17.9852 7.60418 17.9717 7.37074 17.9423C7.23369 17.9402 7.09703 17.9264 6.96208 17.9012C6.79664 17.8453 6.62735 17.8867 6.46341 17.8339C6.36741 17.8029 6.25876 17.8067 6.15654 17.7832C5.98832 17.7441 5.81816 17.7158 5.65187 17.6657C5.514 17.6248 5.37378 17.5931 5.23206 17.5708C5.08977 17.547 4.95562 17.4927 4.81419 17.4646C4.62132 17.4269 4.44088 17.3434 4.24651 17.3052C4.09152 17.2648 3.93859 17.2161 3.78835 17.1593C3.58027 17.0946 3.37133 17.0331 3.16282 16.97C3.06595 16.9421 2.97053 16.909 2.87694 16.8708C2.59229 16.773 2.31572 16.6511 2.04997 16.5062C2.00326 16.4761 1.99297 16.4467 2.00411 16.4058C2.04697 16.2446 2.08983 16.0823 2.14491 15.925C2.21712 15.718 2.29727 15.5139 2.38063 15.3112C2.45992 15.117 2.55743 14.9295 2.6275 14.7324C2.68893 14.5857 2.73909 14.434 2.77751 14.2789C2.79317 14.2078 2.81616 14.1387 2.84608 14.0728C2.89133 13.9611 2.92378 13.8441 2.94273 13.7244C2.96455 13.6183 2.9937 13.514 3.02995 13.4123C3.09553 13.2103 3.12467 12.9977 3.1836 12.7943C3.22989 12.6344 3.26161 12.4694 3.29354 12.3087C3.33439 12.1475 3.36708 11.9841 3.39147 11.8193C3.4104 11.6703 3.43991 11.523 3.47976 11.3786C3.51261 11.2611 3.5357 11.141 3.54876 11.0194C3.56011 10.941 3.5768 10.8636 3.59869 10.7877C3.6168 10.6136 3.65038 10.4416 3.69899 10.274C3.72731 10.1883 3.74356 10.0988 3.7472 10.0082C3.76379 9.84811 3.7934 9.68978 3.83571 9.53496C3.903 9.27723 3.96429 9.01681 4.02557 8.75841C4.09865 8.44859 4.20387 8.15091 4.28959 7.84648C4.32109 7.73423 4.38495 7.62512 4.42202 7.5113C4.49081 7.30094 4.60867 7.11663 4.69161 6.91412C4.73331 6.82626 4.78266 6.74261 4.83904 6.66425C5.03987 6.37724 5.26431 6.10921 5.50979 5.86323C5.72887 5.64867 5.96163 5.44997 6.20647 5.26853C6.3484 5.17009 6.49511 5.07942 6.64599 4.99688C6.7804 4.90719 6.92151 4.82904 7.06794 4.76317C7.2811 4.64909 7.50339 4.55481 7.73226 4.48142C7.87461 4.44479 8.0142 4.39729 8.14993 4.33931C8.22281 4.31432 8.29719 4.29437 8.37258 4.27959C8.53617 4.23859 8.70169 4.20652 8.86846 4.18351C9.16338 4.13578 9.46112 4.1096 9.75951 4.10516C9.97442 4.11143 10.1884 4.13787 10.3988 4.18418C10.6463 4.22718 10.8909 4.28672 11.1312 4.36244C11.3952 4.44856 11.6547 4.54912 11.9087 4.66372C12.1429 4.78127 12.3711 4.91143 12.5925 5.05368C12.6808 5.09656 12.7592 5.15889 12.8224 5.23642C12.8596 5.28146 12.9051 5.31812 12.9562 5.34418C13.0348 5.392 13.0742 5.48517 13.1334 5.55387C13.2886 5.73453 13.4724 5.88582 13.6766 6.00108C13.702 6.0192 13.7332 6.02614 13.7634 6.02038C13.7937 6.01463 13.8205 5.99664 13.8382 5.97032C13.9274 5.85635 13.9988 5.72829 14.0497 5.59091C14.1569 5.3269 14.2707 5.0649 14.356 4.79191C14.4031 4.64149 14.4631 4.49714 14.5049 4.3429C14.5664 4.1092 14.6538 3.87998 14.722 3.64695C14.7807 3.44624 14.8203 3.23948 14.872 3.0363C14.9268 2.83068 14.9577 2.61885 14.9639 2.40545C14.9676 2.32486 14.9877 2.24602 15.0228 2.17422C15.0347 2.13804 15.054 2.10507 15.0795 2.0777C15.105 2.05034 15.1359 2.02926 15.1702 2.01599C15.2044 2.00273 15.241 1.99762 15.2773 2.00103C15.3137 2.00443 15.3489 2.01628 15.3803 2.0357C15.5606 2.11213 15.7347 2.20373 15.9008 2.30959C16.032 2.39288 16.1541 2.49211 16.2773 2.58842C16.4043 2.6879 16.5244 2.79653 16.6369 2.9135C16.7031 2.9822 16.7181 3.06661 16.6487 3.12476C16.4886 3.25946 16.3436 3.40965 16.1818 3.54143C16.0985 3.62248 16.0221 3.71088 15.9533 3.80567C15.8106 3.97001 15.6975 4.15792 15.5676 4.33168C15.4009 4.56706 15.2492 4.81373 15.1135 5.07007C14.9914 5.28128 14.8931 5.50661 14.8206 5.74155C14.743 5.9598 14.71 6.19271 14.7239 6.42516C14.724 6.49693 14.7451 6.56694 14.7842 6.62584C14.8233 6.68474 14.8787 6.72971 14.9429 6.75473C15.1695 6.86688 15.3855 7.00088 15.5884 7.15501C15.6902 7.22237 15.7939 7.28635 15.8935 7.35707C15.964 7.40691 16.0307 7.46348 16.0965 7.5205C16.1341 7.56105 16.1794 7.5928 16.2296 7.61367C16.3056 7.63612 16.3266 7.72749 16.3862 7.76678C16.4821 7.84302 16.5726 7.92653 16.6569 8.01665C16.7991 8.15115 16.9283 8.30005 17.0426 8.46117C17.1238 8.56803 17.1712 8.70565 17.2517 8.81835C17.5336 9.30023 17.7432 9.82456 17.8732 10.373C17.9047 10.5374 17.9184 10.7057 17.954 10.8669C18.0042 11.1879 18.0134 11.5144 17.9812 11.8379C17.979 11.9982 17.9587 12.1577 17.9206 12.3129C17.8811 12.4593 17.8672 12.6145 17.8312 12.7642C17.7824 12.9748 17.7229 13.1825 17.6531 13.3865C17.5528 13.671 17.4335 13.9464 17.3126 14.2221C17.2078 14.4308 17.0919 14.6332 16.9654 14.8283C16.8812 14.9746 16.7749 15.1028 16.6817 15.2416C16.6485 15.2864 16.6117 15.3281 16.5718 15.3664C16.4355 15.5114 16.2996 15.6567 16.1612 15.7995C16.0637 15.8791 15.9545 15.9416 15.8378 15.9844C15.7832 16.0125 15.7245 15.9566 15.7275 15.8836C15.7168 15.7527 15.7281 15.6209 15.7611 15.4941C15.775 15.4283 15.7782 15.3605 15.7703 15.2937C15.7718 15.145 15.8213 15.0018 15.8132 14.8512C15.7947 14.3703 15.6621 13.9017 15.4274 13.488C15.3765 13.3987 15.3144 13.317 15.2427 13.2451C15.1932 13.1964 15.1525 13.1052 15.0961 13.0417C14.9777 12.9302 14.853 12.8263 14.7226 12.7305C14.5971 12.6268 14.458 12.5425 14.3097 12.4802C14.1919 12.4322 14.0715 12.3915 13.9492 12.3583C13.7507 12.2961 13.5442 12.2661 13.337 12.2696C13.1082 12.2642 12.8796 12.2824 12.6542 12.3239C12.6223 12.3349 12.5913 12.3488 12.5617 12.3655C12.3846 12.4384 12.2014 12.4986 12.0321 12.5877C11.9254 12.6371 11.8309 12.7116 11.7559 12.8053C11.7209 12.8419 11.6807 12.8726 11.6367 12.8962C11.4213 13.0676 11.2237 13.2624 11.0472 13.4772C10.8166 13.727 10.6346 14.0215 10.5115 14.3442C10.4499 14.4967 10.4174 14.6603 10.4159 14.8258C10.3984 15.1401 10.4128 15.4555 10.4588 15.7667C10.5163 15.9942 10.6015 16.213 10.7123 16.4177C10.7923 16.5776 10.904 16.7176 11.0399 16.8286C11.2016 16.9801 11.3817 17.1085 11.5757 17.2102C11.7133 17.2713 11.8465 17.3577 11.9865 17.4168C12.1187 17.4999 12.2637 17.5581 12.4151 17.589C12.444 17.5921 12.4751 17.6256 12.5079 17.6451Z" fill="currentColor"/>
</svg>
