<svg width="20" height="20" viewBox="0 0 20 20" fill="none" xmlns="http://www.w3.org/2000/svg">
<path fill-rule="evenodd" clip-rule="evenodd" d="M10.2928 17.6543C10.2955 17.6528 10.2983 17.6512 10.301 17.6496L12.1525 16.5806C12.0983 16.6519 12.0387 16.7203 11.9737 16.7853L10.1549 18.6041C9.37385 19.3851 8.10752 19.3851 7.32647 18.6041L2.56583 13.8434C1.75558 13.0332 1.7904 11.7092 2.64212 10.9426L3.45962 10.2069L7.36767 16.9758C7.93381 17.9564 9.18767 18.2924 10.1682 17.7262L10.2928 17.6543Z" fill="currentColor"/>
<path fill-rule="evenodd" clip-rule="evenodd" d="M6.72024 5.65662L4.22783 7.09562C3.6659 7.42005 3.47336 8.13859 3.7978 8.70053L8.19168 16.311C8.51611 16.8729 9.23465 17.0654 9.79659 16.741L10.6716 16.2358L9.96242 16.3147C8.84041 16.4395 7.82966 15.631 7.70486 14.509L6.72024 5.65662Z" fill="currentColor"/>
<path fill-rule="evenodd" clip-rule="evenodd" d="M13.6351 1.62753L8.39366 2.21051C7.83266 2.27291 7.42845 2.77829 7.49085 3.3393L8.72066 14.396C8.78306 14.9571 9.28843 15.3613 9.84944 15.2989L15.0908 14.7159C15.6518 14.6535 16.056 14.1481 15.9936 13.5871L14.7638 2.53035C14.7014 1.96934 14.1961 1.56513 13.6351 1.62753ZM13.5506 6.71751C13.6389 7.46895 13.3077 8.17301 12.7422 8.59534L12.8959 9.90393C12.9604 10.4524 12.568 10.9493 12.0195 11.0138L11.9757 11.019C11.4272 11.0834 10.9302 10.691 10.8658 10.1425L10.712 8.83392C10.0639 8.55421 9.57858 7.94609 9.49027 7.19465C9.35852 6.07342 10.1606 5.05768 11.2819 4.92593C12.4031 4.79417 13.4188 5.59629 13.5506 6.71751Z" fill="currentColor"/>
</svg>
