<svg width="20" height="20" viewBox="0 0 20 20" fill="none" xmlns="http://www.w3.org/2000/svg">
<path d="M15 4.79422C15 4.52148 14.9422 4.25233 14.8311 4.00723C14.72 3.76213 14.5584 3.54753 14.3587 3.37974C14.159 3.21194 13.9263 3.09538 13.6785 3.0389C13.4306 2.98241 13.1741 2.98751 12.9283 3.05378L11.2617 3.50235C10.9013 3.59954 10.5813 3.82361 10.3528 4.13894C10.1242 4.45427 10 4.84279 10 5.24278V12.9689C9.47179 12.7332 8.90512 12.6136 8.33333 12.6172C7.5 12.6172 6.71 12.8576 6.10333 13.2936C5.50333 13.7243 5 14.4204 5 15.3086C5 16.1968 5.50167 16.8929 6.10333 17.3236C6.71 17.7596 7.50167 18 8.33333 18C9.16667 18 9.95667 17.7596 10.5633 17.3236C11.1633 16.8929 11.6667 16.1968 11.6667 15.3086V8.83131L15 7.93418V4.79422V4.79422Z" fill="currentColor"/>
</svg>
