<svg width="20" height="20" viewBox="0 0 20 20" fill="none" xmlns="http://www.w3.org/2000/svg">
<path fill-rule="evenodd" clip-rule="evenodd" d="M9.7 17.7C14.1183 17.7 17.7 14.1183 17.7 9.7C17.7 5.28172 14.1183 1.7 9.7 1.7C5.28172 1.7 1.7 5.28172 1.7 9.7C1.7 14.1183 5.28172 17.7 9.7 17.7ZM14.8276 9.46896C14.8276 12.4208 12.4346 14.8138 9.48276 14.8138C6.53089 14.8138 4.13793 12.4208 4.13793 9.46896C4.13793 6.5171 6.53089 4.12414 9.48276 4.12414C12.4346 4.12414 14.8276 6.5171 14.8276 9.46896Z" fill="currentColor"/>
<path d="M10.5972 11.8669C10.5923 11.8752 10.5857 11.8826 10.5776 11.8886C10.5696 11.8946 10.5603 11.8991 10.5503 11.9018C10.4823 11.9263 10.4079 11.926 10.3392 11.9481C10.321 11.954 10.2966 11.9435 10.2778 11.9481C10.194 11.9707 10.1055 11.9566 10.0213 11.9785C9.98605 11.9827 9.95047 11.9837 9.91504 11.9816C9.49614 12.0111 9.07659 11.9971 8.6575 11.9935C8.55465 11.9945 8.45183 11.9894 8.34971 11.9784C8.28975 11.9776 8.22996 11.9724 8.17092 11.963C8.09854 11.942 8.02447 11.9575 7.95275 11.9377C7.91075 11.9261 7.86321 11.9275 7.81849 11.9187C7.7449 11.904 7.67045 11.8934 7.5977 11.8747C7.53738 11.8593 7.47604 11.8474 7.41403 11.839C7.35178 11.8301 7.29309 11.8097 7.23121 11.7992C7.14683 11.7851 7.06789 11.7538 6.98286 11.7394C6.91504 11.7243 6.84814 11.706 6.78241 11.6847C6.69137 11.6605 6.59996 11.6374 6.50874 11.6138C6.46636 11.6033 6.42461 11.5909 6.38367 11.5765C6.25913 11.5399 6.13813 11.4941 6.02187 11.4398C6.00143 11.4285 5.99693 11.4175 6.00181 11.4022C6.02056 11.3417 6.03931 11.2809 6.0634 11.2219C6.095 11.1442 6.13006 11.0677 6.16653 10.9917C6.20122 10.9189 6.24388 10.8486 6.27454 10.7746C6.30141 10.7196 6.32336 10.6628 6.34017 10.6046C6.34702 10.5779 6.35708 10.552 6.37017 10.5273C6.38996 10.4854 6.40416 10.4415 6.41245 10.3966C6.422 10.3569 6.43475 10.3177 6.45061 10.2796C6.4793 10.2039 6.49205 10.1241 6.51783 10.0479C6.53808 9.98791 6.55196 9.92603 6.56593 9.86575C6.5838 9.8053 6.59811 9.74404 6.60877 9.68222C6.61706 9.62635 6.62997 9.57111 6.6474 9.51696C6.66177 9.47293 6.67187 9.42786 6.67759 9.38226C6.68255 9.35287 6.68985 9.32383 6.69944 9.29538C6.70736 9.23008 6.72205 9.1656 6.74331 9.10276C6.75571 9.07063 6.76281 9.03705 6.76441 9.00308C6.77166 8.94304 6.78462 8.88367 6.80313 8.82561C6.83257 8.72896 6.85938 8.6313 6.8862 8.5344C6.91817 8.41822 6.9642 8.30659 7.0017 8.19243C7.01548 8.15033 7.04342 8.10942 7.05964 8.06674C7.08974 7.98785 7.1413 7.91873 7.17758 7.8428C7.19583 7.80985 7.21742 7.77848 7.24209 7.74909C7.32995 7.64146 7.42814 7.54095 7.53554 7.44871C7.63139 7.36825 7.73322 7.29374 7.84034 7.2257C7.90243 7.18878 7.96662 7.15478 8.03263 7.12383C8.09143 7.0902 8.15317 7.06089 8.21723 7.03619C8.31049 6.99341 8.40774 6.95805 8.50787 6.93053C8.57015 6.9168 8.63122 6.89898 8.6906 6.87724C8.72249 6.86787 8.75503 6.86039 8.78801 6.85485C8.85958 6.83947 8.932 6.82744 9.00496 6.81881C9.13399 6.80092 9.26425 6.7911 9.39479 6.78943C9.48881 6.79178 9.58241 6.8017 9.67446 6.81907C9.78276 6.83519 9.88979 6.85752 9.99492 6.88591C10.1104 6.91821 10.224 6.95592 10.3351 6.99889C10.4375 7.04298 10.5374 7.09179 10.6342 7.14513C10.6729 7.16121 10.7072 7.18458 10.7348 7.21366C10.7511 7.23055 10.771 7.24429 10.7933 7.25407C10.8277 7.272 10.845 7.30694 10.8709 7.3327C10.9388 7.40045 11.0192 7.45718 11.1085 7.5004C11.1196 7.5072 11.1333 7.5098 11.1465 7.50764C11.1597 7.50548 11.1715 7.49874 11.1792 7.48887C11.2183 7.44613 11.2495 7.39811 11.2718 7.34659C11.3186 7.24759 11.3684 7.14934 11.4057 7.04696C11.4264 6.99056 11.4526 6.93643 11.4709 6.87859C11.4978 6.79095 11.5361 6.70499 11.5659 6.6176C11.5916 6.54234 11.6089 6.4648 11.6315 6.38861C11.6555 6.3115 11.669 6.23207 11.6717 6.15204C11.6733 6.12182 11.6821 6.09226 11.6975 6.06533C11.7027 6.05176 11.7111 6.0394 11.7223 6.02914C11.7334 6.01888 11.747 6.01097 11.762 6.006C11.7769 6.00102 11.7929 5.99911 11.8088 6.00038C11.8247 6.00166 11.8401 6.0061 11.8539 6.01339C11.9328 6.04205 12.0089 6.0764 12.0816 6.1161C12.139 6.14733 12.1924 6.18454 12.2463 6.22066C12.3019 6.25796 12.3544 6.2987 12.4037 6.34256C12.4326 6.36832 12.4392 6.39998 12.4088 6.42178C12.3388 6.4723 12.2753 6.52862 12.2045 6.57804C12.1681 6.60843 12.1347 6.64158 12.1046 6.67713C12.0421 6.73875 11.9926 6.80922 11.9358 6.87438C11.8629 6.96265 11.7965 7.05515 11.7372 7.15127C11.6837 7.23048 11.6407 7.31498 11.609 7.40308C11.575 7.48493 11.5606 7.57227 11.5667 7.65943C11.5668 7.68635 11.576 7.7126 11.5931 7.73469C11.6102 7.75678 11.6344 7.77364 11.6625 7.78302C11.7616 7.82508 11.8562 7.87533 11.9449 7.93313C11.9895 7.95839 12.0348 7.98238 12.0784 8.0089C12.1093 8.02759 12.1384 8.0488 12.1672 8.07019C12.1837 8.08539 12.2035 8.0973 12.2254 8.10513C12.2587 8.11354 12.2679 8.14781 12.294 8.16254C12.3359 8.19113 12.3755 8.22245 12.4124 8.25624C12.4746 8.30668 12.5311 8.36252 12.5811 8.42294C12.6167 8.46301 12.6374 8.51462 12.6726 8.55688C12.7959 8.73759 12.8876 8.93421 12.9445 9.13988C12.9583 9.20151 12.9643 9.26465 12.9799 9.3251C13.0019 9.44545 13.0059 9.5679 12.9918 9.68921C12.9908 9.74933 12.9819 9.80913 12.9653 9.86735C12.948 9.92224 12.9419 9.98042 12.9262 10.0366C12.9048 10.1155 12.8788 10.1934 12.8482 10.2699C12.8044 10.3766 12.7522 10.4799 12.6993 10.5833C12.6534 10.6616 12.6027 10.7374 12.5474 10.8106C12.5105 10.8655 12.464 10.9136 12.4233 10.9656C12.4087 10.9824 12.3926 10.998 12.3752 11.0124C12.3155 11.0668 12.2561 11.1213 12.1955 11.1748C12.1529 11.2047 12.1051 11.2281 12.0541 11.2442C12.0301 11.2547 12.0045 11.2337 12.0058 11.2064C12.0011 11.1573 12.0061 11.1078 12.0205 11.0603C12.0266 11.0356 12.0279 11.0102 12.0245 10.9851C12.0252 10.9294 12.0468 10.8757 12.0433 10.8192C12.0352 10.6388 11.9772 10.4632 11.8745 10.308C11.8522 10.2745 11.8251 10.2439 11.7937 10.2169C11.772 10.1986 11.7542 10.1645 11.7296 10.1406C11.6778 10.0988 11.6232 10.0598 11.5662 10.0239C11.5112 9.98506 11.4504 9.95345 11.3855 9.93007C11.334 9.91209 11.2813 9.89682 11.2278 9.88436C11.1409 9.86102 11.0506 9.8498 10.9599 9.8511C10.8599 9.84907 10.7598 9.8559 10.6612 9.87148C10.6473 9.8756 10.6337 9.88081 10.6207 9.88705C10.5433 9.91441 10.4631 9.93698 10.3891 9.9704C10.3424 9.98893 10.301 10.0168 10.2682 10.052C10.2529 10.0657 10.2353 10.0772 10.2161 10.0861C10.1218 10.1504 10.0354 10.2234 9.95816 10.304C9.85726 10.3976 9.77764 10.5081 9.72378 10.6291C9.69683 10.6862 9.68262 10.7476 9.68196 10.8097C9.6743 10.9275 9.68059 11.0458 9.70071 11.1625C9.7259 11.2478 9.76318 11.3299 9.81163 11.4067C9.84665 11.4666 9.89552 11.5191 9.95498 11.5607C10.0257 11.6175 10.1045 11.6657 10.1894 11.7038C10.2496 11.7267 10.3079 11.7591 10.3691 11.7813C10.4269 11.8124 10.4904 11.8343 10.5566 11.8459C10.5693 11.847 10.5829 11.8596 10.5972 11.8669Z" fill="currentColor"/>
</svg>
