<svg width="20" height="20" viewBox="0 0 20 20" fill="none" xmlns="http://www.w3.org/2000/svg">
<path fill-rule="evenodd" clip-rule="evenodd" d="M3 1H17V19H3V1ZM4 2V18H16V2H4Z" fill="currentColor"/>
<path fill-rule="evenodd" clip-rule="evenodd" d="M5 17V3H15V17H5ZM12.772 4.36759C12.8584 4.39047 12.9172 4.46887 12.9167 4.5567V8.46773C13.7541 9.08108 14.2778 10.0767 14.2778 11.5556C14.2778 14.7374 12.3626 15.4444 10 15.4444C7.63745 15.4444 5.72223 15.0909 5.72223 11.5556C5.72223 10.1082 6.11852 9.17294 6.77293 8.58334L7.08391 4.54064C7.09071 4.45217 7.15655 4.37952 7.24394 4.36408C7.33132 4.34863 7.41807 4.39431 7.45479 4.47509L8.93205 7.72506C9.27342 7.68389 9.63126 7.66666 10 7.66666C10.2668 7.66666 10.5278 7.68019 10.7811 7.70825L12.5506 4.46406C12.5927 4.38497 12.6842 4.34434 12.772 4.36759ZM12.177 8.05383C11.9567 7.96158 11.7237 7.88686 11.4803 7.82858L12.4083 5.74065L12.177 8.05383ZM7.47222 6.01674V8.11986C7.68901 8.0158 7.92133 7.93298 8.1665 7.86815L7.47222 6.01674ZM9.02778 11.75C9.02778 12.0722 8.76661 12.3333 8.44445 12.3333C8.12228 12.3333 7.86111 12.0722 7.86111 11.75C7.86111 11.4278 8.12228 11.1667 8.44445 11.1667C8.76661 11.1667 9.02778 11.4278 9.02778 11.75ZM10 12.1389C10.1074 12.1389 10.1944 12.2259 10.1944 12.3333C10.1944 12.4255 10.2285 12.4644 10.2595 12.4866C10.3003 12.5161 10.3552 12.5278 10.3889 12.5278C10.4963 12.5278 10.5833 12.6148 10.5833 12.7222C10.5833 12.8296 10.4963 12.9167 10.3889 12.9167C10.293 12.9167 10.1534 12.8895 10.0322 12.8022C10.0212 12.7943 10.0105 12.786 10 12.7772C9.98954 12.786 9.97879 12.7943 9.96779 12.8022C9.84661 12.8895 9.70705 12.9167 9.61112 12.9167C9.50373 12.9167 9.41667 12.8296 9.41667 12.7222C9.41667 12.6148 9.50373 12.5278 9.61112 12.5278C9.64482 12.5278 9.69969 12.5161 9.74056 12.4866C9.77151 12.4644 9.80556 12.4255 9.80556 12.3333C9.80556 12.2259 9.89262 12.1389 10 12.1389ZM11.5556 12.3333C11.8777 12.3333 12.1389 12.0722 12.1389 11.75C12.1389 11.4278 11.8777 11.1667 11.5556 11.1667C11.2334 11.1667 10.9722 11.4278 10.9722 11.75C10.9722 12.0722 11.2334 12.3333 11.5556 12.3333Z" fill="currentColor"/>
</svg>
