<svg width="20" height="20" viewBox="0 0 20 20" fill="none" xmlns="http://www.w3.org/2000/svg">
<path fill-rule="evenodd" clip-rule="evenodd" d="M9.24875 11.0029C7.59587 10.5553 5.40701 9.39641 5.06849 7.02681C4.65047 4.10062 4.89432 2.49819 5.06849 1.80148C5.06849 1.80148 7.5 4.24174 8 4.5C8.5 4.75826 10.2938 1.31136 10.2938 1.31136C10.2938 1.31136 12.1078 5.08835 12.5 4.5C13.5 3 15 1.5 15 1.5C15.1742 2.19671 15.5191 3.96152 15.5191 6.50428C15.5191 9.14747 13.2908 10.6765 11.3389 11.0913V16.9549C11.3389 17.5321 10.871 18 10.2938 18C9.71664 18 9.24875 17.5321 9.24875 16.9549V11.0029ZM8.48771 17.438C8.38198 16.1809 8.02011 15.7217 6.63733 14.7413C5.67447 14.0587 5.31962 14.0396 4.63732 14.0027C4.33977 13.9866 3.97993 13.9672 3.48022 13.8879C3.58675 14.1374 3.66951 14.3548 3.744 14.5506C4.05107 15.3575 4.21779 15.7956 5.3306 16.5845C6.41929 17.3564 6.85023 17.3703 7.69325 17.3977C7.92097 17.4051 8.17876 17.4134 8.48771 17.438ZM12.1305 17.5048C12.7236 17.4283 13.5088 17.327 14.4377 16.5762C15.3048 15.8754 15.3986 15.6204 15.6288 14.9952L15.6288 14.9952C15.7162 14.7576 15.8233 14.4666 16 14.0773C15.879 14.0878 15.7666 14.0965 15.661 14.1047L15.6604 14.1047L15.6602 14.1047C14.6986 14.1792 14.307 14.2096 13.229 15.0808C12.0324 16.048 11.7988 16.3566 11.6667 17.5797C11.8046 17.5468 11.9595 17.5268 12.1305 17.5048H12.1305Z" fill="currentColor"/>
</svg>
