<svg width="20" height="20" viewBox="0 0 20 20" fill="none" xmlns="http://www.w3.org/2000/svg">
<path fill-rule="evenodd" clip-rule="evenodd" d="M2.5 1H17.5V19H2.5V1ZM13.6967 2.84567C13.6641 2.80412 13.6183 2.77271 13.564 2.75833C13.4512 2.72845 13.3337 2.78063 13.2795 2.88221L11.0042 7.05347C10.6786 7.01739 10.343 7 10 7C9.52591 7 9.06582 7.02215 8.62692 7.07508L6.72759 2.89655C6.68038 2.79269 6.56884 2.73396 6.45649 2.75382C6.34414 2.77367 6.25949 2.86707 6.25074 2.98083L5.85091 8.17858C5.00952 8.93662 4.5 10.1391 4.5 12C4.5 16.5455 6.96243 17 10 17C13.0376 17 15.5 16.0909 15.5 12C15.5 10.0986 14.8267 8.81854 13.75 8.02994V3.00203V3C13.75 2.96286 13.7418 2.92726 13.727 2.89514L13.6967 2.84567ZM11.9033 7.20818C12.2162 7.28312 12.5158 7.37918 12.799 7.49779L13.0964 4.52368L11.9033 7.20818ZM6.75 7.58267V4.87866L7.64265 7.25905C7.32744 7.34241 7.02873 7.44888 6.75 7.58267ZM8 13C8.41422 13 8.75 12.6642 8.75 12.25C8.75 11.8358 8.41422 11.5 8 11.5C7.58579 11.5 7.25 11.8358 7.25 12.25C7.25 12.6642 7.58579 13 8 13ZM10.25 13C10.25 12.8619 10.1381 12.75 10 12.75C9.86193 12.75 9.75 12.8619 9.75 13C9.75 13.1185 9.70622 13.1685 9.66642 13.1971C9.61388 13.2349 9.54333 13.25 9.5 13.25C9.36193 13.25 9.25 13.3619 9.25 13.5C9.25 13.6381 9.36193 13.75 9.5 13.75C9.62334 13.75 9.80278 13.7151 9.95858 13.6029C9.97272 13.5927 9.98654 13.582 10 13.5707C10.0135 13.582 10.0273 13.5927 10.0414 13.6029C10.1972 13.7151 10.3767 13.75 10.5 13.75C10.6381 13.75 10.75 13.6381 10.75 13.5C10.75 13.3619 10.6381 13.25 10.5 13.25C10.4567 13.25 10.3861 13.2349 10.3336 13.1971C10.2938 13.1685 10.25 13.1185 10.25 13ZM12.75 12.25C12.75 12.6642 12.4142 13 12 13C11.5858 13 11.25 12.6642 11.25 12.25C11.25 11.8358 11.5858 11.5 12 11.5C12.4142 11.5 12.75 11.8358 12.75 12.25Z" fill="currentColor"/>
</svg>
