<svg width="20" height="20" viewBox="0 0 20 20" fill="none" xmlns="http://www.w3.org/2000/svg">
<g clip-path="url(#clip0_226:195)">
<path fill-rule="evenodd" clip-rule="evenodd" d="M14.5577 2.71054L6.79422 1.95712C5.93668 1.8739 5.17864 2.45431 5.10108 3.25351L3.81377 16.5184C3.73621 17.3176 4.3685 18.0329 5.22604 18.1161L12.9896 18.8696C13.8471 18.9528 14.6051 18.3724 14.6827 17.5732L15.97 4.3083C16.0476 3.5091 15.4153 2.79376 14.5577 2.71054ZM6.88784 0.992398C5.45862 0.853696 4.19521 1.82105 4.06594 3.15305L2.77863 16.4179C2.64937 17.7499 3.70319 18.9422 5.13242 19.0809L12.8959 19.8343C14.3252 19.973 15.5886 19.0056 15.7178 17.6736L17.0052 4.40876C17.1344 3.07676 16.0806 1.88452 14.6514 1.74582L6.88784 0.992398Z" fill="currentColor"/>
<path fill-rule="evenodd" clip-rule="evenodd" d="M5.95915 3.72024C6.01652 3.17094 6.50894 2.76586 7.05899 2.81546L14.1521 3.45504C14.7021 3.50464 15.1015 3.99014 15.0442 4.53944L13.7405 17.021C13.6831 17.5703 13.1907 17.9754 12.6406 17.9258L5.54756 17.2862C4.99751 17.2366 4.59811 16.7511 4.65548 16.2018L5.95915 3.72024ZM12.4489 8.56016C12.5559 7.71878 11.6766 6.8815 10.4552 6.62717L10.709 6.25164L9.91106 6.13016L10.0615 6.56724C8.82303 6.44705 7.76832 6.98989 7.66135 7.83127C7.60493 8.27508 7.61602 8.60899 7.68183 8.86209C8.42854 8.88133 9.3977 8.94993 10.2845 9.10362C10.8206 9.19653 11.3403 9.32281 11.7664 9.49454C11.8827 9.54143 11.9968 9.59357 12.1048 9.65184C12.2655 9.42632 12.3829 9.0794 12.4489 8.56016ZM12.1606 10.4961C12.0789 10.3544 11.8733 10.1979 11.507 10.0503C11.1439 9.90399 10.6775 9.78796 10.165 9.69913C9.30004 9.54923 8.34285 9.4833 7.61612 9.46647C7.48979 9.63382 7.40075 9.88111 7.3555 10.237C7.15842 11.7872 6.94768 13.4447 9.23952 14.6111C11.7353 14.1736 11.946 12.516 12.1431 10.9659C12.1658 10.7874 12.171 10.6318 12.1606 10.4961Z" fill="currentColor"/>
</g>
<defs>
<clipPath id="clip0_226:195">
<rect width="20" height="20" fill="white"/>
</clipPath>
</defs>
</svg>
