<svg width="20" height="20" viewBox="0 0 20 20" fill="none" xmlns="http://www.w3.org/2000/svg">
<path d="M10.1138 16.1111C10.1022 16.1881 10.0958 16.2658 10.0946 16.3437C10.0946 16.7377 10.3632 17 10.734 17C11.0742 17 11.3632 16.7778 11.4437 16.3837L12.1522 12.8915H13.6918C14.2302 12.8915 14.4808 12.5892 14.4808 12.1848C14.4808 11.7817 14.2404 11.5001 13.6918 11.5001H12.4322L13.0921 8.23911H14.7097C15.2596 8.23911 15.5 7.94584 15.5 7.5324C15.5 7.12801 15.2596 6.85541 14.7097 6.85541H13.3721L13.9808 3.8787C13.9931 3.80871 13.9999 3.73787 14.0013 3.66681C14.0023 3.57898 13.9859 3.49182 13.9531 3.41047C13.9204 3.32912 13.8718 3.25521 13.8103 3.1931C13.7488 3.13098 13.6757 3.08192 13.5952 3.04878C13.5146 3.01565 13.4284 2.99911 13.3414 3.00015C13.1805 2.99705 13.0235 3.05087 12.8976 3.15231C12.7718 3.25376 12.6849 3.39644 12.6522 3.5557L11.9834 6.85541H9.12532L9.73529 3.8787C9.74552 3.82702 9.75448 3.72624 9.75448 3.66681C9.75518 3.5783 9.7383 3.49055 9.70482 3.40875C9.67135 3.32695 9.62197 3.25277 9.5596 3.19061C9.49724 3.12844 9.42316 3.07955 9.34175 3.04684C9.26034 3.01412 9.17327 2.99825 9.08568 3.00015C8.92639 2.99922 8.77169 3.05405 8.6479 3.15533C8.52411 3.25662 8.43886 3.39809 8.40665 3.5557L7.73529 6.85541H6.30818C5.75831 6.85541 5.51918 7.13964 5.51918 7.54274C5.51918 7.94584 5.75831 8.23911 6.30818 8.23911H7.46675L6.80818 11.4988H5.27877C4.74041 11.4988 4.5 11.7817 4.5 12.1848C4.5 12.5892 4.74041 12.8915 5.28005 12.8915H6.52813L5.86829 16.1111C5.85806 16.1628 5.8491 16.2726 5.8491 16.3437C5.8491 16.7377 6.11765 17 6.48849 17C6.82737 17 7.11765 16.7778 7.19693 16.3837L7.90665 12.8915H10.7737L10.1151 16.1111H10.1138ZM8.83504 8.21844H11.7327L11.0742 11.5298H8.15601L8.83632 8.21844H8.83504Z" fill="currentColor"/>
</svg>
