<svg width="20" height="20" viewBox="0 0 20 20" fill="none" xmlns="http://www.w3.org/2000/svg">
<path fill-rule="evenodd" clip-rule="evenodd" d="M5.00033 9.23238C4.04375 9.78467 2.82057 9.45692 2.26828 8.50033C1.716 7.54375 2.04375 6.32057 3.00033 5.76828L10.7946 1.26828C11.7511 0.715998 12.9743 1.04375 13.5266 2.00033C14.0789 2.95692 13.7511 4.1801 12.7946 4.73238L5.00033 9.23238ZM4.86636 7.00033C5.1425 7.47863 4.97863 8.09022 4.50033 8.36636C4.02204 8.6425 3.41045 8.47863 3.13431 8.00033C2.85817 7.52204 3.02204 6.91045 3.50033 6.63431C3.97863 6.35817 4.59022 6.52204 4.86636 7.00033Z" fill="currentColor"/>
<path fill-rule="evenodd" clip-rule="evenodd" d="M2 9.0003C2.74782 10.0002 4.14218 10.3052 5.25033 9.6654L12 5.76847V10H6.30769L4.70424 15.5586L2 17.5V9.0003ZM6.68385 10.5L4.66462 17.5H18.3354L16.3162 10.5H6.68385ZM9.75 11V11.5H7.35407V12H7.75V13.5H6.81593V14H12.75V15.5H6V16H7.75V17H8.25V16H15.75V17H16.25V16H16.6561V15.5H13.25V14H16.2717V13.5H14.25V12H15.5V11.5H10.25V11H9.75ZM8.25 13.5V12H13.75V13.5H8.25Z" fill="currentColor"/>
</svg>
